<svg version="1.2" xmlns="http://www.w3.org/2000/svg" viewBox="0 0 1276 436" width="1276" height="436"><style>.a{fill:#f91b15}</style><path  d="m847.1 56.7h-418.2l146 46.9-179.4 332h25.9l216.6-311.7 216.6 311.7h25.9l-179.4-332z"/><path class="a" d="m950.6 0.8h-625.2c-1.7 0-3.1 1.4-3.1 3.1v43.1c0 1.7 1.4 3.1 3.1 3.1h625.2c1.7 0 3.1-1.4 3.1-3.1v-43.1c0-1.7-1.4-3.1-3.1-3.1z"/><path  d="m215.1 202.9l64.5-20.8c-28.9 5.9-67 9.4-108.8 9.4-41.7 0-79.8-3.5-108.8-9.4l64.6 20.8-125.8 232.7h18.2l151.8-218.5 151.9 218.5h18.1z"/><path class="a" d="m170.8 186c90.6 0 164-16.7 164-37.3 0-20.6-73.4-37.3-164-37.3-90.6 0-164 16.7-164 37.3 0 20.6 73.4 37.3 164 37.3z"/><path  d="m1149.4 202.9l64.6-20.8c-29 5.9-67.1 9.4-108.8 9.4-41.8 0-79.9-3.5-108.8-9.4l64.5 20.8-125.7 232.7h18.1l151.9-218.5 151.8 218.5h18.2z"/><path class="a" d="m1105.2 186c90.6 0 164-16.7 164-37.3 0-20.6-73.4-37.3-164-37.3-90.6 0-164 16.7-164 37.3 0 20.6 73.4 37.3 164 37.3z"/></svg>