<?xml version="1.0" encoding="UTF-8" standalone="no"?>
<!-- Created with Inkscape (http://www.inkscape.org/) -->

<svg
   version="1.1"
   id="svg1"
   width="512"
   height="512"
   viewBox="0 0 512 512"
   sodipodi:docname="gear.svg"
   inkscape:version="1.3.2 (091e20e, 2023-11-25, custom)"
   xmlns:inkscape="http://www.inkscape.org/namespaces/inkscape"
   xmlns:sodipodi="http://sodipodi.sourceforge.net/DTD/sodipodi-0.dtd"
   xmlns="http://www.w3.org/2000/svg"
   xmlns:svg="http://www.w3.org/2000/svg">
  <defs
     id="defs1" />
  <sodipodi:namedview
     id="namedview1"
     pagecolor="#ffffff"
     bordercolor="#000000"
     borderopacity="0.25"
     inkscape:showpageshadow="2"
     inkscape:pageopacity="0.0"
     inkscape:pagecheckerboard="0"
     inkscape:deskcolor="#d1d1d1"
     inkscape:zoom="1.1228082"
     inkscape:cx="171.89044"
     inkscape:cy="236.46068"
     inkscape:window-width="1920"
     inkscape:window-height="1027"
     inkscape:window-x="-9"
     inkscape:window-y="15"
     inkscape:window-maximized="1"
     inkscape:current-layer="g2" />
  <g
     inkscape:groupmode="layer"
     inkscape:label="Image"
     id="g1">
    <g
       id="g2">
      <path
         style="display:inline;fill:#d2d2d2"
         d="m 55.078947,397.41667 c 0.04798,-1.16495 0.284941,-1.4019 0.604167,-0.60417 0.288871,0.72187 0.253344,1.58438 -0.07895,1.91667 -0.332292,0.33229 -0.568641,-0.25834 -0.52522,-1.3125 z M 251.8125,360.31689 c 0.72187,-0.28887 1.58437,-0.25335 1.91667,0.0789 0.33229,0.33229 -0.25834,0.56864 -1.3125,0.52522 -1.16495,-0.048 -1.4019,-0.28494 -0.60417,-0.60416 z m 7,0 c 0.72187,-0.28887 1.58438,-0.25335 1.91667,0.0789 0.33229,0.33229 -0.25834,0.56864 -1.3125,0.52522 -1.16495,-0.048 -1.4019,-0.28494 -0.60417,-0.60416 z M 151.07895,259.41667 c 0.048,-1.16495 0.28494,-1.4019 0.60416,-0.60417 0.28887,0.72187 0.25335,1.58438 -0.0789,1.91667 -0.3323,0.33229 -0.56864,-0.25834 -0.52522,-1.3125 z m 209,0 c 0.048,-1.16495 0.28494,-1.4019 0.60416,-0.60417 0.28887,0.72187 0.25335,1.58438 -0.0789,1.91667 -0.33229,0.33229 -0.56864,-0.25834 -0.52522,-1.3125 z m -209,-7 c 0.048,-1.16495 0.28494,-1.4019 0.60416,-0.60417 0.28887,0.72187 0.25335,1.58437 -0.0789,1.91667 -0.3323,0.33229 -0.56864,-0.25834 -0.52522,-1.3125 z m 209,0 c 0.048,-1.16495 0.28494,-1.4019 0.60416,-0.60417 0.28887,0.72187 0.25335,1.58437 -0.0789,1.91667 -0.33229,0.33229 -0.56864,-0.25834 -0.52522,-1.3125 z M 251.8125,151.31689 c 0.72187,-0.28887 1.58437,-0.25335 1.91667,0.0789 0.33229,0.33229 -0.25834,0.56864 -1.3125,0.52522 -1.16495,-0.048 -1.4019,-0.28494 -0.60417,-0.60416 z m 7,0 c 0.72187,-0.28887 1.58438,-0.25335 1.91667,0.0789 0.33229,0.33229 -0.25834,0.56864 -1.3125,0.52522 -1.16495,-0.048 -1.4019,-0.28494 -0.60417,-0.60416 z M 431.99128,79.25 410.5,57.5 432.25,78.991278 C 444.2125,90.811481 454,100.59898 454,100.74128 454,101.45117 451.96051,99.459635 431.99128,79.25 Z"
         id="path8" />
      <path
         style="display:inline;fill:#b1b1b1"
         d="m 113.8125,456.31689 c 0.72187,-0.28887 1.58437,-0.25335 1.91667,0.0789 0.33229,0.33229 -0.25834,0.56864 -1.3125,0.52522 -1.16495,-0.048 -1.4019,-0.28494 -0.60417,-0.60416 z M 80.991278,431.25 59.5,409.5 81.25,430.99128 C 101.45963,450.96051 103.45117,453 102.74128,453 c -0.1423,0 -9.929799,-9.7875 -21.750002,-21.75 z M 50.157895,111 c 0,-1.375 0.226973,-1.9375 0.504386,-1.25 0.277412,0.6875 0.277412,1.8125 0,2.5 -0.277413,0.6875 -0.504386,0.125 -0.504386,-1.25 z"
         id="path7" />
      <path
         style="display:inline;fill:#8f8f8f"
         d="m 400.8125,456.31689 c 0.72187,-0.28887 1.58438,-0.25335 1.91667,0.0789 0.33229,0.33229 -0.25834,0.56864 -1.3125,0.52522 -1.16495,-0.048 -1.4019,-0.28494 -0.60417,-0.60416 z m -154,-96 c 0.72187,-0.28887 1.58437,-0.25335 1.91667,0.0789 0.33229,0.33229 -0.25834,0.56864 -1.3125,0.52522 -1.16495,-0.048 -1.4019,-0.28494 -0.60417,-0.60416 z m 17,0 c 0.72187,-0.28887 1.58438,-0.25335 1.91667,0.0789 0.33229,0.33229 -0.25834,0.56864 -1.3125,0.52522 -1.16495,-0.048 -1.4019,-0.28494 -0.60417,-0.60416 z M 151.07895,264.41667 c 0.048,-1.16495 0.28494,-1.4019 0.60416,-0.60417 0.28887,0.72187 0.25335,1.58438 -0.0789,1.91667 -0.3323,0.33229 -0.56864,-0.25834 -0.52522,-1.3125 z m 209,0 c 0.048,-1.16495 0.28494,-1.4019 0.60416,-0.60417 0.28887,0.72187 0.25335,1.58438 -0.0789,1.91667 -0.33229,0.33229 -0.56864,-0.25834 -0.52522,-1.3125 z m -209,-17 c 0.048,-1.16495 0.28494,-1.4019 0.60416,-0.60417 0.28887,0.72187 0.25335,1.58437 -0.0789,1.91667 -0.3323,0.33229 -0.56864,-0.25834 -0.52522,-1.3125 z m 209,0 c 0.048,-1.16495 0.28494,-1.4019 0.60416,-0.60417 0.28887,0.72187 0.25335,1.58437 -0.0789,1.91667 -0.33229,0.33229 -0.56864,-0.25834 -0.52522,-1.3125 z M 246.8125,151.31689 c 0.72187,-0.28887 1.58437,-0.25335 1.91667,0.0789 0.33229,0.33229 -0.25834,0.56864 -1.3125,0.52522 -1.16495,-0.048 -1.4019,-0.28494 -0.60417,-0.60416 z m 17,0 c 0.72187,-0.28887 1.58438,-0.25335 1.91667,0.0789 0.33229,0.33229 -0.25834,0.56864 -1.3125,0.52522 -1.16495,-0.048 -1.4019,-0.28494 -0.60417,-0.60416 z"
         id="path6" />
      <path
         style="display:inline;fill:#717171"
         d="m 457.07895,397.41667 c 0.048,-1.16495 0.28494,-1.4019 0.60416,-0.60417 0.28887,0.72187 0.25335,1.58438 -0.0789,1.91667 -0.33229,0.33229 -0.56864,-0.25834 -0.52522,-1.3125 z"
         id="path5" />
      <path
         style="display:inline;fill:#4d4d4d"
         d="m 431.5,431 c 11.54018,-11.55 21.20714,-21 21.48214,-21 0.275,0 -8.94196,9.45 -20.48214,21 -11.54018,11.55 -21.20714,21 -21.48214,21 -0.275,0 8.94196,-9.45 20.48214,-21 z m 25.57895,-320.58333 c 0.048,-1.16495 0.28494,-1.4019 0.60416,-0.60417 0.28887,0.72187 0.25335,1.58437 -0.0789,1.91667 -0.33229,0.33229 -0.56864,-0.25834 -0.52522,-1.3125 z M 76,79.5 C 87.815406,67.675 97.707556,58 97.982556,58 98.257556,58 88.815406,67.675 77,79.5 65.184594,91.325 55.292444,101 55.017444,101 54.742444,101 64.184594,91.325 76,79.5 Z m 32.8125,-25.183114 c 0.72187,-0.288871 1.58437,-0.253344 1.91667,0.07895 0.33229,0.332292 -0.25834,0.568641 -1.3125,0.52522 -1.16495,-0.04798 -1.4019,-0.284941 -0.60417,-0.604167 z m 289,0 c 0.72187,-0.288871 1.58438,-0.253344 1.91667,0.07895 0.33229,0.332292 -0.25834,0.568641 -1.3125,0.52522 -1.16495,-0.04798 -1.4019,-0.284941 -0.60417,-0.604167 z"
         id="path4" />
      <path
         style="display:inline;fill:#2f2f2f"
         d="m 400.8125,54.316886 c 0.72187,-0.288871 1.58438,-0.253344 1.91667,0.07895 0.33229,0.332292 -0.25834,0.568641 -1.3125,0.52522 -1.16495,-0.04798 -1.4019,-0.284941 -0.60417,-0.604167 z"
         id="path3" />
      <path
         style="display:inline;fill:#000000"
         d="m 221.6838,510.57762 c -4.77975,-1.73778 -7.13902,-3.84819 -8.80895,-7.87977 -0.71935,-1.73666 -4.4857,-16.17712 -8.36967,-32.08992 l -7.06177,-28.93236 -8.61228,-3.18996 c -4.73675,-1.75448 -12.17937,-4.86389 -16.53916,-6.90982 l -7.92689,-3.71986 -21.43254,12.86422 c -24.79385,14.88174 -26.58583,15.72382 -31.9345,15.00641 -5.33107,-0.71504 -7.97632,-2.97724 -32.656047,-27.92718 -19.808629,-20.02551 -21.200439,-21.67378 -21.823338,-25.84452 -0.379014,-2.53776 -0.196611,-5.68425 0.423857,-7.31165 0.599054,-1.57124 6.996762,-12.71288 14.217128,-24.75922 l 13.127938,-21.90243 -3.344156,-7.24078 c -1.839286,-3.98243 -4.994479,-11.49232 -7.011541,-16.68864 L 70.264497,314.60427 39.79732,307.05214 C 23.040373,302.89846 8.1402255,298.70826 6.6858817,297.74058 0.64584626,293.72171 0.5,292.73758 0.5,256 c 0,-36.74744 0.14591453,-37.73042 6.1960534,-41.74058 1.4599383,-0.96768 16.3650416,-5.18835 33.1224516,-9.37926 l 30.468018,-7.61984 3.17029,-8.38016 c 1.74366,-4.60909 4.436992,-11.18452 5.985183,-14.61207 l 2.814894,-6.23191 -15.060182,-25.26809 c -8.2831,-13.89745 -15.365426,-26.50855 -15.738503,-28.02466 -1.788674,-7.26885 -0.674607,-8.83506 23.88257,-33.575273 12.737574,-12.832513 24.374378,-23.970013 25.859565,-24.75 C 102.68553,55.638171 105.88877,55 108.31866,55 c 3.91394,0 7.28279,1.7144 29.52907,15.027278 l 25.11109,15.027279 5.27059,-2.707642 c 2.89883,-1.489204 10.65652,-4.826751 17.23932,-7.416772 l 11.96874,-4.70913 7.53126,-30.444985 C 209.11093,23.031285 213.29174,8.140922 214.25942,6.686331 218.2779,0.64584948 219.26198,0.5 256,0.5 c 36.73899,0 37.72296,0.14585661 41.74058,6.1873375 0.96768,1.4551446 5.17182,16.3779155 9.34254,33.1617125 l 7.58312,30.515995 8.41688,3.143759 c 4.62928,1.729067 11.95607,4.791535 16.28175,6.805483 l 7.86488,3.661726 23.39852,-14.053051 c 12.86919,-7.729178 24.94235,-14.30358 26.82925,-14.609781 8.33161,-1.352034 9.49028,-0.568703 31.82853,21.517937 27.11108,26.805722 27.22132,26.946132 27.18684,34.628442 -0.0269,5.98574 -0.15614,6.25377 -14.27443,29.59674 l -14.24731,23.5563 3.69814,7.9437 c 2.03398,4.36903 5.11284,11.7313 6.84191,16.36058 l 3.14375,8.41688 30.516,7.58312 c 16.7838,4.17072 31.70657,8.37486 33.16171,9.34254 6.04148,4.01762 6.18734,5.00159 6.18734,41.74058 0,36.73899 -0.14586,37.72296 -6.18734,41.74058 -1.45514,0.96768 -16.37791,5.17182 -33.16171,9.34254 l -30.516,7.58312 -3.14375,8.41688 c -1.72907,4.62928 -4.73338,11.83019 -6.67624,16.00202 l -3.53248,7.58514 14.02235,23.33974 c 15.16274,25.23786 16.6866,29.28695 13.38833,35.57438 -0.84121,1.60358 -12.0288,13.33725 -24.86132,26.07483 -24.73348,24.5505 -26.28423,25.6542 -33.57527,23.89624 -1.51611,-0.36555 -12.89648,-6.71507 -25.2897,-14.11005 C 359.57365,434.05044 348.86823,428 348.17704,428 c -0.6912,0 -3.15129,0.96857 -5.46688,2.15237 -2.31559,1.18381 -9.59859,4.29425 -16.18445,6.9121 l -11.97428,4.75972 -7.52572,30.42238 c -4.13914,16.73232 -8.31745,31.61251 -9.28513,33.0671 -3.96791,5.96446 -5.22128,6.16439 -40.24058,6.41887 -25.25038,0.18349 -32.80493,-0.0601 -35.8162,-1.15492 z M 281.5,358.18017 c 19.30097,-5.42937 33.04933,-13.04165 46.38036,-25.68017 15.36931,-14.57092 24.79579,-30.6467 30.78484,-52.5 1.39301,-5.08293 1.78136,-10.31519 1.78136,-24 0,-13.68481 -0.38835,-18.91707 -1.78136,-24 C 353.22439,212.14714 345.26761,197.58684 332.5,184.11964 317.92908,168.75033 301.8533,159.32385 280,153.3348 c -9.29917,-2.5485 -38.70083,-2.5485 -48,0 -36.11797,9.89838 -62.7481,33.67116 -74.95492,66.91245 -4.78835,13.0395 -5.49164,17.61824 -5.49164,35.75275 0,13.68481 0.38835,18.91707 1.78136,24 5.44081,19.85286 13.39759,34.41316 26.1652,47.88036 16.76574,17.68439 36.03147,27.87072 61.5,32.51677 1.375,0.25083 9.475,0.29768 18,0.1041 11.52526,-0.2617 17.29504,-0.8569 22.5,-2.32106 z"
         id="path2" />
    </g>
  </g>
</svg>
