<?xml version="1.0" encoding="UTF-8" standalone="no"?>
<!-- Created with Inkscape (http://www.inkscape.org/) -->

<svg
   version="1.1"
   id="svg1"
   width="512"
   height="512"
   viewBox="0 0 512 512"
   sodipodi:docname="gears.svg"
   inkscape:version="1.3.2 (091e20e, 2023-11-25, custom)"
   xmlns:inkscape="http://www.inkscape.org/namespaces/inkscape"
   xmlns:sodipodi="http://sodipodi.sourceforge.net/DTD/sodipodi-0.dtd"
   xmlns="http://www.w3.org/2000/svg"
   xmlns:svg="http://www.w3.org/2000/svg">
  <defs
     id="defs1" />
  <sodipodi:namedview
     id="namedview1"
     pagecolor="#ffffff"
     bordercolor="#000000"
     borderopacity="0.25"
     inkscape:showpageshadow="2"
     inkscape:pageopacity="0.0"
     inkscape:pagecheckerboard="0"
     inkscape:deskcolor="#d1d1d1"
     showgrid="false"
     inkscape:zoom="1.0810547"
     inkscape:cx="435.68564"
     inkscape:cy="318.67028"
     inkscape:window-width="2400"
     inkscape:window-height="1321"
     inkscape:window-x="2391"
     inkscape:window-y="-9"
     inkscape:window-maximized="1"
     inkscape:current-layer="g1" />
  <g
     inkscape:groupmode="layer"
     inkscape:label="Image"
     id="g1">
    <g
       id="g2">
      <path
         style="fill:#cfcfcf"
         d="m 192.8125,509.31689 c 0.72187,-0.28887 1.58437,-0.25335 1.91667,0.0789 0.33229,0.33229 -0.25834,0.56864 -1.3125,0.52522 -1.16495,-0.048 -1.4019,-0.28494 -0.60417,-0.60416 z M 270,482.5 c 1.86578,-1.925 3.61733,-3.5 3.89233,-3.5 0.275,0 -1.02655,1.575 -2.89233,3.5 -1.86578,1.925 -3.61733,3.5 -3.89233,3.5 -0.275,0 1.02655,-1.575 2.89233,-3.5 z M 374.40499,403.75 372.5,401.5 l 2.25,1.90499 c 1.2375,1.04774 2.25,2.06024 2.25,2.25 0,0.80025 -0.80479,0.20945 -2.59501,-1.90499 z m 46.78996,-16.25 c 0.0204,-1.65 0.2445,-2.20394 0.49804,-1.23097 0.25354,0.97297 0.23687,2.32297 -0.0371,3 -0.27393,0.67703 -0.48137,-0.11903 -0.46099,-1.76903 z M 342,376.62244 c 0,-0.20765 0.7875,-0.99515 1.75,-1.75 1.58606,-1.24387 1.62143,-1.2085 0.37756,0.37756 C 342.82119,376.91575 342,377.44548 342,376.62244 Z m 132,-4 c 0,-0.20765 0.7875,-0.99515 1.75,-1.75 1.58606,-1.24387 1.62143,-1.2085 0.37756,0.37756 C 474.82119,372.91575 474,373.44548 474,372.62244 Z M 129.5,336 c 2.70865,-2.75 5.14982,-5 5.42482,-5 0.275,0 -1.71617,2.25 -4.42482,5 -2.70865,2.75 -5.14982,5 -5.42482,5 -0.275,0 1.71617,-2.25 4.42482,-5 z m 357.90499,-2.25 -1.90499,-2.25 2.25,1.90499 c 2.11444,1.79022 2.70524,2.59501 1.90499,2.59501 -0.18976,0 -1.20226,-1.0125 -2.25,-2.25 z m -217.53255,-0.5 c -1.24387,-1.58606 -1.2085,-1.62143 0.37756,-0.37756 1.66575,1.30637 2.19548,2.12756 1.37244,2.12756 -0.20765,0 -0.99515,-0.7875 -1.75,-1.75 z m 17.39659,-14.94299 c 0.97297,-0.25354 2.32297,-0.23687 3,0.0371 0.67703,0.27393 -0.11903,0.48137 -1.76903,0.46099 -1.65,-0.0204 -2.20394,-0.2445 -1.23097,-0.49804 z M 185,311.62244 c 0,-0.20765 0.7875,-0.99515 1.75,-1.75 1.58606,-1.24387 1.62143,-1.2085 0.37756,0.37756 C 185.82119,311.91575 185,312.44548 185,311.62244 Z M 431.15789,286 c 0,-1.375 0.22698,-1.9375 0.50439,-1.25 0.27741,0.6875 0.27741,1.8125 0,2.5 -0.27741,0.6875 -0.50439,0.125 -0.50439,-1.25 z M 259.5,261 c 6.58281,-6.6 12.19374,-12 12.46874,-12 0.275,0 -4.88593,5.4 -11.46874,12 -6.58281,6.6 -12.19374,12 -12.46874,12 -0.275,0 4.88593,-5.4 11.46874,-12 z m 225.76903,-13.69299 c 0.97297,-0.25354 2.32297,-0.23687 3,0.0371 0.67703,0.27393 -0.11903,0.48137 -1.76903,0.46099 -1.65,-0.0204 -2.20394,-0.2445 -1.23097,-0.49804 z m -191.70474,-7.01388 c -0.54268,-1.4252 -0.42782,-1.54006 0.5598,-0.5598 0.68342,0.67834 0.99067,1.48524 0.68278,1.79313 -0.30789,0.30789 -0.86705,-0.24711 -1.24258,-1.23333 z m 187.51466,-32.87646 c 0.048,-1.16495 0.28494,-1.4019 0.60416,-0.60417 0.28887,0.72187 0.25335,1.58437 -0.0789,1.91667 -0.33229,0.33229 -0.56864,-0.25834 -0.52522,-1.3125 z M 309.8125,189.31689 c 0.72187,-0.28887 1.58438,-0.25335 1.91667,0.0789 0.33229,0.33229 -0.25834,0.56864 -1.3125,0.52522 -1.16495,-0.048 -1.4019,-0.28494 -0.60417,-0.60416 z M 437.5,184 c 0.99549,-1.1 2.03498,-2 2.30998,-2 0.275,0 -0.31449,0.9 -1.30998,2 -0.99549,1.1 -2.03498,2 -2.30998,2 -0.275,0 0.31449,-0.9 1.30998,-2 z M 43.5,47 C 50.082805,40.4 55.693736,35 55.968736,35 56.243736,35 51.082805,40.4 44.5,47 37.917195,53.6 32.306264,59 32.031264,59 31.756264,59 36.917195,53.6 43.5,47 Z"
         id="path8" />
      <path
         style="fill:#afafaf"
         d="m 197.26375,509.28242 c 1.52006,-0.22986 3.77006,-0.22371 5,0.0136 1.22994,0.23736 -0.0137,0.42542 -2.76375,0.41792 -2.75,-0.008 -3.75631,-0.20172 -2.23625,-0.43157 z M 126.43709,476.75 123.5,473.5 l 3.25,2.93709 c 3.02946,2.73778 3.70965,3.56291 2.93709,3.56291 -0.1721,0 -1.6346,-1.4625 -3.25,-3.25 z M 275.5,477 c 0.99549,-1.1 2.03498,-2 2.30998,-2 0.275,0 -0.31449,0.9 -1.30998,2 -0.99549,1.1 -2.03498,2 -2.30998,2 -0.275,0 0.31449,-0.9 1.30998,-2 z m 145.65789,-94 c 0,-1.375 0.22698,-1.9375 0.50439,-1.25 0.27741,0.6875 0.27741,1.8125 0,2.5 -0.27741,0.6875 -0.50439,0.125 -0.50439,-1.25 z M 200.75,371.33772 c 0.6875,-0.27741 1.8125,-0.27741 2.5,0 0.6875,0.27741 0.125,0.50439 -1.25,0.50439 -1.375,0 -1.9375,-0.22698 -1.25,-0.50439 z M 292,319 c -0.90129,-0.58246 -1.02463,-0.97549 -0.30902,-0.98469 0.65504,-0.008 1.4691,0.43469 1.80902,0.98469 0.7673,1.24153 0.42112,1.24153 -1.5,0 z m 124,-3.31291 c 0,-0.1721 1.4625,-1.6346 3.25,-3.25 l 3.25,-2.93709 -2.93709,3.25 C 416.82513,315.77946 416,316.45965 416,315.68709 Z M 419.40499,251.75 417.5,249.5 l 2.25,1.90499 c 2.11444,1.79022 2.70524,2.59501 1.90499,2.59501 -0.18976,0 -1.20226,-1.0125 -2.25,-2.25 z M 433,188.62244 c 0,-0.20765 0.7875,-0.99515 1.75,-1.75 1.58606,-1.24387 1.62143,-1.2085 0.37756,0.37756 C 433.82119,188.91575 433,189.44548 433,188.62244 Z"
         id="path7" />
      <path
         style="fill:#909090"
         d="m 204.8125,509.31689 c 0.72187,-0.28887 1.58437,-0.25335 1.91667,0.0789 0.33229,0.33229 -0.25834,0.56864 -1.3125,0.52522 -1.16495,-0.048 -1.4019,-0.28494 -0.60417,-0.60416 z M 131.40499,481.75 129.5,479.5 l 2.25,1.90499 c 2.11444,1.79022 2.70524,2.59501 1.90499,2.59501 -0.18976,0 -1.20226,-1.0125 -2.25,-2.25 z M 421.07895,379.41667 c 0.048,-1.16495 0.28494,-1.4019 0.60416,-0.60417 0.28887,0.72187 0.25335,1.58438 -0.0789,1.91667 -0.33229,0.33229 -0.56864,-0.25834 -0.52522,-1.3125 z M 481.87244,328.25 c -1.24387,-1.58606 -1.2085,-1.62143 0.37756,-0.37756 1.66575,1.30637 2.19548,2.12756 1.37244,2.12756 -0.20765,0 -0.99515,-0.7875 -1.75,-1.75 z M 303.40918,153.5 c -0.001,-9.35 0.14916,-13.3096 0.33401,-8.7991 0.18486,4.51049 0.1858,12.16049 0.002,17 -0.1837,4.8395 -0.33495,1.1491 -0.3361,-8.2009 z m -97.21423,0 c 0.0204,-1.65 0.2445,-2.20394 0.49804,-1.23097 0.25354,0.97297 0.23687,2.32297 -0.0371,3 -0.27393,0.67703 -0.48137,-0.11903 -0.46099,-1.76903 z M 144.2991,2.2547158 c 4.83951,-0.1837076 12.48951,-0.1827672 17,0.00209 4.5105,0.1848571 0.5509,0.3351633 -8.7991,0.3340139 -9.35,-0.00115 -13.0404,-0.1523961 -8.2009,-0.3361037 z"
         id="path6" />
      <path
         style="fill:#6e6e6e"
         d="m 200.8125,443.31689 c 0.72187,-0.28887 1.58437,-0.25335 1.91667,0.0789 0.33229,0.33229 -0.25834,0.56864 -1.3125,0.52522 -1.16495,-0.048 -1.4019,-0.28494 -0.60417,-0.60416 z M 302.27236,412 c 0,-2.475 0.19502,-3.4875 0.43337,-2.25 0.23836,1.2375 0.23836,3.2625 0,4.5 -0.23835,1.2375 -0.43337,0.225 -0.43337,-2.25 z m 40.92259,-128.5 c 0.0204,-1.65 0.2445,-2.20394 0.49804,-1.23097 0.25354,0.97297 0.23687,2.32297 -0.0371,3 -0.27393,0.67703 -0.48137,-0.11903 -0.46099,-1.76903 z M 51.946167,269.25 48.5,265.5 l 3.75,3.44617 c 2.0625,1.89539 3.75,3.58289 3.75,3.75 0,0.76362 -0.846216,0.0442 -4.053833,-3.44617 z M 353.15789,177 c 0,-1.375 0.22698,-1.9375 0.50439,-1.25 0.27741,0.6875 0.27741,1.8125 0,2.5 -0.27741,0.6875 -0.50439,0.125 -0.50439,-1.25 z M 206.07895,149.41667 c 0.048,-1.16495 0.28494,-1.4019 0.60416,-0.60417 0.28887,0.72187 0.25335,1.58437 -0.0789,1.91667 -0.3323,0.33229 -0.56864,-0.25834 -0.52522,-1.3125 z M 258.98369,47.25 247.5,35.5 259.25,46.983688 c 6.4625,6.316028 11.75,11.603528 11.75,11.75 0,0.720169 -1.34959,-0.569602 -12.01631,-11.483688 z"
         id="path5" />
      <path
         style="fill:#505050"
         d="m 302.232,405 c 0,-1.925 0.2058,-2.7125 0.45733,-1.75 0.25152,0.9625 0.25152,2.5375 0,3.5 -0.25153,0.9625 -0.45733,0.175 -0.45733,-1.75 z m -202.15305,-3.58333 c 0.048,-1.16495 0.28494,-1.4019 0.60416,-0.60417 0.28887,0.72187 0.25335,1.58438 -0.0789,1.91667 -0.3323,0.33229 -0.56864,-0.25834 -0.52522,-1.3125 z m 193,-41 c 0.048,-1.16495 0.28494,-1.4019 0.60416,-0.60417 0.28887,0.72187 0.25335,1.58438 -0.0789,1.91667 -0.33229,0.33229 -0.56864,-0.25834 -0.52522,-1.3125 z M 343.19495,278.5 c 0.0204,-1.65 0.2445,-2.20394 0.49804,-1.23097 0.25354,0.97297 0.23687,2.32297 -0.0371,3 -0.27393,0.67703 -0.48137,-0.11903 -0.46099,-1.76903 z M 40.47654,257.75 32.5,249.5 l 8.25,7.97654 C 48.412347,264.88491 49.45589,266 48.72654,266 c -0.150403,0 -3.862903,-3.7125 -8.25,-8.25 z M 354,252.62244 c 0,-0.20765 0.7875,-0.99515 1.75,-1.75 1.58606,-1.24387 1.62143,-1.2085 0.37756,0.37756 C 354.82119,252.91575 354,253.44548 354,252.62244 Z M 288.87244,234.25 c -1.24387,-1.58606 -1.2085,-1.62143 0.37756,-0.37756 1.66575,1.30637 2.19548,2.12756 1.37244,2.12756 -0.20765,0 -0.99515,-0.7875 -1.75,-1.75 z M 151.8125,207.31689 c 0.72187,-0.28887 1.58437,-0.25335 1.91667,0.0789 0.33229,0.33229 -0.25834,0.56864 -1.3125,0.52522 -1.16495,-0.048 -1.4019,-0.28494 -0.60417,-0.60416 z M 353.15789,181 c 0,-1.375 0.22698,-1.9375 0.50439,-1.25 0.27741,0.6875 0.27741,1.8125 0,2.5 -0.27741,0.6875 -0.50439,0.125 -0.50439,-1.25 z"
         id="path4" />
      <path
         style="fill:#2e2e2e"
         d="m 100.32007,409 c 0,-3.575 0.1815,-5.0375 0.40333,-3.25 0.22182,1.7875 0.22182,4.7125 0,6.5 -0.22183,1.7875 -0.40333,0.325 -0.40333,-3.25 z m 64.83782,-2 c 0,-1.375 0.22698,-1.9375 0.50439,-1.25 0.27741,0.6875 0.27741,1.8125 0,2.5 -0.27741,0.6875 -0.50439,0.125 -0.50439,-1.25 z m 208.71455,-4.75 c -1.24387,-1.58606 -1.2085,-1.62143 0.37756,-0.37756 1.66575,1.30637 2.19548,2.12756 1.37244,2.12756 -0.20765,0 -0.99515,-0.7875 -1.75,-1.75 z M 340.5,377 c 0.99549,-1.1 2.03498,-2 2.30998,-2 0.275,0 -0.31449,0.9 -1.30998,2 -0.99549,1.1 -2.03498,2 -2.30998,2 -0.275,0 0.31449,-0.9 1.30998,-2 z M 273,337.5 c -2.42903,-2.475 -4.19142,-4.5 -3.91642,-4.5 0.275,0 2.48739,2.025 4.91642,4.5 2.42903,2.475 4.19142,4.5 3.91642,4.5 -0.275,0 -2.48739,-2.025 -4.91642,-4.5 z m -140,-4 c 1.29175,-1.375 2.57363,-2.5 2.84863,-2.5 0.275,0 -0.55688,1.125 -1.84863,2.5 -1.29175,1.375 -2.57363,2.5 -2.84863,2.5 -0.275,0 0.55688,-1.125 1.84863,-2.5 z m 255.26903,-7.19299 c 0.97297,-0.25354 2.32297,-0.23687 3,0.0371 0.67703,0.27393 -0.11903,0.48137 -1.76903,0.46099 -1.65,-0.0204 -2.20394,-0.2445 -1.23097,-0.49804 z M 277.75,317.33772 c 0.6875,-0.27741 1.8125,-0.27741 2.5,0 0.6875,0.27741 0.125,0.50439 -1.25,0.50439 -1.375,0 -1.9375,-0.22698 -1.25,-0.50439 z M 355.94617,313.25 352.5,309.5 l 3.75,3.44617 c 2.0625,1.89539 3.75,3.58289 3.75,3.75 0,0.76362 -0.84622,0.0442 -4.05383,-3.44617 z M 265,273.62244 c 0,-0.20765 0.7875,-0.99515 1.75,-1.75 1.58606,-1.24387 1.62143,-1.2085 0.37756,0.37756 C 265.82119,273.91575 265,274.44548 265,273.62244 Z m 92,-24 c 0,-0.20765 0.7875,-0.99515 1.75,-1.75 1.58606,-1.24387 1.62143,-1.2085 0.37756,0.37756 C 357.82119,249.91575 357,250.44548 357,249.62244 Z M 292.40499,237.75 290.5,235.5 l 2.25,1.90499 c 1.2375,1.04774 2.25,2.06024 2.25,2.25 0,0.80025 -0.80479,0.20945 -2.59501,-1.90499 z M 385.25,237.28375 c 1.5125,-0.22913 3.9875,-0.22913 5.5,0 1.5125,0.22912 0.275,0.41659 -2.75,0.41659 -3.025,0 -4.2625,-0.18747 -2.75,-0.41659 z M 148.8125,207.31689 c 0.72187,-0.28887 1.58437,-0.25335 1.91667,0.0789 0.33229,0.33229 -0.25834,0.56864 -1.3125,0.52522 -1.16495,-0.048 -1.4019,-0.28494 -0.60417,-0.60416 z m 6,0 c 0.72187,-0.28887 1.58437,-0.25335 1.91667,0.0789 0.33229,0.33229 -0.25834,0.56864 -1.3125,0.52522 -1.16495,-0.048 -1.4019,-0.28494 -0.60417,-0.60416 z m 198.26645,-22.90022 c 0.048,-1.16495 0.28494,-1.4019 0.60416,-0.60417 0.28887,0.72187 0.25335,1.58437 -0.0789,1.91667 -0.33229,0.33229 -0.56864,-0.25834 -0.52522,-1.3125 z M 438,184.62244 c 0,-0.20765 0.7875,-0.99515 1.75,-1.75 1.58606,-1.24387 1.62143,-1.2085 0.37756,0.37756 C 438.82119,184.91575 438,185.44548 438,184.62244 Z m -50.1875,-26.30555 c 0.72187,-0.28887 1.58438,-0.25335 1.91667,0.0789 0.33229,0.33229 -0.25834,0.56864 -1.3125,0.52522 -1.16495,-0.048 -1.4019,-0.28494 -0.60417,-0.60416 z"
         id="path3" />
      <path
         style="fill:#000000"
         d="m 190,508.34793 c -6.90725,-2.27559 -9.81518,-6.56284 -10.67154,-15.73341 -0.60345,-6.46221 -0.66189,-6.56915 -4.22019,-7.72116 -1.98455,-0.64251 -6.21993,-2.47504 -9.41197,-4.07228 l -5.80369,-2.90408 -3.69631,2.90448 c -11.36853,8.93319 -17.25065,8.2203 -28.12943,-3.40915 -9.37223,-10.01895 -9.74997,-15.86063 -1.66368,-25.72888 l 3.70969,-4.52719 -2.44382,-4.82813 c -1.34409,-2.65547 -2.99864,-6.68362 -3.67677,-8.95145 l -1.23296,-4.12332 -6.94604,-1.14712 C 103.10184,426.00699 101,423.07667 101,407.45395 c 0,-8.29194 0.38205,-11.29213 1.72816,-13.5709 2.1512,-3.64169 8.64326,-6.87815 13.83756,-6.89836 4.74173,-0.0185 5.93888,-0.71042 6.8939,-3.98469 0.40105,-1.375 2.09324,-5.51563 3.76042,-9.2014 3.31513,-7.32903 3.33602,-7.15652 -1.71465,-14.15779 -6.04448,-8.37889 -4.44073,-14.95476 5.84059,-23.9483 7.56211,-6.61493 9.54055,-7.69251 14.12346,-7.69251 3.77878,0 7.20749,1.70454 11.75304,5.84287 l 2.72248,2.47858 6.77752,-3.08274 c 3.72764,-1.6955 8.63378,-3.62221 10.90254,-4.28156 3.97438,-1.15506 4.14612,-1.377 4.70282,-6.07744 0.79141,-6.68222 3.35775,-11.66576 6.96915,-13.53329 3.82342,-1.97717 12.7893,-2.81597 20.20117,-1.88992 8.44159,1.05471 12.12996,4.79074 13.76737,13.94527 l 1.23447,6.90178 5.5,2.12206 c 3.025,1.16713 7.47513,3.16493 9.88919,4.43956 l 4.38919,2.31749 2.61081,-2.12399 c 1.43594,-1.1682 4.56938,-3.05074 6.96319,-4.18342 7.12678,-3.37218 10.1993,-2.19794 19.89762,7.60439 7.95847,8.04382 8.25,8.50303 8.25,12.99516 0,5.07858 -0.87385,7.21334 -5.12711,12.5252 l -2.80248,3.5 3.38609,8.39502 c 1.86234,4.61726 3.60437,9.22976 3.87117,10.25 0.35002,1.33846 1.41612,1.85653 3.82871,1.86056 6.07213,0.0101 10.62967,1.91151 13.79952,5.75709 2.95906,3.58985 3.0441,3.98275 3.0441,14.06404 0,15.68104 -2.48551,19.39634 -14.24272,21.28978 -6.70944,1.08053 -7.75728,1.49186 -7.75728,3.04517 0,0.574 -1.73262,4.74095 -3.85027,9.25989 l -3.85026,8.21626 2.40513,2.93109 c 1.32282,1.61211 3.28044,4.60067 4.35026,6.64126 3.59043,6.8484 2.38309,11.33178 -5.215,19.36565 -11.16127,11.80139 -18.02981,12.65904 -28.75767,3.59085 l -3.41781,-2.88905 -6.08219,2.75649 c -3.3452,1.51607 -7.93676,3.25536 -10.20346,3.86508 -4.1114,1.10593 -4.12285,1.12253 -4.77933,6.92498 -1.41746,12.52872 -6.02302,16.22002 -20.0838,16.09689 -4.95858,-0.0434 -9.6906,-0.30132 -10.5156,-0.57312 z m 19.20078,-65.47114 c 13.50758,-2.86303 24.19104,-12.91494 27.77305,-26.13128 1.8912,-6.97785 0.9143,-18.14002 -2.17048,-24.80021 -10.46553,-22.59558 -41.30077,-27.94873 -58.57327,-10.16862 -11.1585,11.48644 -13.71311,26.8082 -6.92666,41.54409 5.33199,11.57774 18.42845,20.02326 31.89736,20.56966 1.48543,0.0603 5.08543,-0.39587 8,-1.01364 z m 169.28635,-36.91555 c -3.7104,-1.94518 -6.51372,-7.49241 -8.19582,-16.21794 l -1.64686,-8.5427 -6.57223,-1.76189 c -3.61472,-0.96904 -8.52203,-2.58918 -10.90513,-3.6003 C 348.784,374.82728 346.19836,374 345.42124,374 c -0.77712,0 -4.53176,2.86214 -8.34366,6.36031 -11.13884,10.22211 -14.77454,9.84343 -30.15357,-3.14073 -11.3733,-9.60222 -12.88728,-11.69462 -12.90927,-17.84127 -0.0117,-3.27229 1.01568,-5.70014 4.98526,-11.78093 2.75,-4.21258 5,-8.04542 5,-8.51742 0,-0.472 -1.79971,-3.93794 -3.99935,-7.70209 -2.19964,-3.76415 -4.46242,-8.24702 -5.02839,-9.96193 l -1.02904,-3.11802 -9.59751,-0.63044 c -16.52927,-1.08577 -18.72716,-3.75672 -20.5055,-24.91894 -1.06561,-12.6809 -1.01671,-13.76101 0.76047,-16.79595 2.9064,-4.96335 6.20165,-6.85241 15.19841,-8.71274 l 8.24928,-1.70577 0.95537,-4.01704 c 0.52546,-2.20937 2.10328,-7.61704 3.50627,-12.01704 1.403,-4.4 2.5372,-8.46692 2.52045,-9.03759 -0.0168,-0.57068 -2.26935,-3.24282 -5.00578,-5.9381 -8.26895,-8.14462 -9.89439,-13.96875 -5.76956,-20.67298 1.23469,-2.00677 5.72557,-7.72417 9.97974,-12.70532 11.35528,-13.29577 15.60256,-14.04159 28.8612,-5.06803 l 5.59606,3.78747 3.40394,-2.1254 c 1.87217,-1.16896 7.45394,-4.17619 12.40394,-6.68272 l 9,-4.55733 0.51531,-8.56735 c 0.81292,-13.51518 3.74823,-16.50518 17.63779,-17.9664 25.48976,-2.68159 28.87392,-1.11402 32.35865,14.9888 l 1.61331,7.45505 8.93747,2.61991 c 4.91561,1.44094 10.67206,3.37038 12.79211,4.28764 l 3.85464,1.66774 6.30686,-5.53712 c 11.7729,-10.33603 14.63896,-9.89941 32.21749,4.90814 12.95493,10.91278 13.92397,15.58435 5.77483,27.83953 l -4.56315,6.86234 3.90279,6.72086 c 2.14653,3.69647 4.72675,8.79777 5.73382,11.33622 l 1.83103,4.61535 8.77755,0.56867 c 15.21534,0.98576 17.6514,3.86091 19.27776,22.75246 1.85793,21.5814 -0.0478,24.76349 -16.70977,27.90169 l -6.74152,1.26973 -1.0725,4.13837 c -2.18808,8.44294 -2.75611,10.2571 -4.84296,15.46711 l -2.1344,5.32873 6.00633,6.55485 c 8.14966,8.89391 9.37461,14.54089 4.6986,21.66037 -4.16828,6.34645 -15.40878,18.43447 -19.01548,20.44923 -5.5465,3.09835 -9.2328,2.41825 -17.81137,-3.28612 -3.75167,-2.49469 -7.15163,-4.5358 -7.55547,-4.5358 -0.40384,0 -6.01773,2.5875 -12.47532,5.75 l -11.74106,5.75 -0.0422,7 c -0.0761,12.60621 -3.12457,18.32735 -10.91128,20.47737 -5.43259,1.5 -29.23595,2.24037 -31.63268,0.98387 z m 23.92995,-82.11486 c 11.20448,-3.74968 20.55408,-12.29738 25.88703,-23.66677 2.66575,-5.68316 3.19017,-8.0968 3.51538,-16.17961 0.3139,-7.80189 -0.005,-10.64704 -1.78554,-15.91708 -7.00625,-20.74005 -28.32928,-33.85239 -49.03324,-30.15238 -19.21706,3.43428 -33.94757,18.05935 -37.18092,36.91478 -3.23962,18.89203 7.09877,38.76383 24.48362,47.06086 11.14039,5.31681 22.15243,5.94312 34.11367,1.9402 z M 130.5,304.54242 c -7.34092,-2.68755 -8.53238,-5.23106 -10.55953,-22.54242 -0.61185,-5.225 -1.41125,-9.76758 -1.77646,-10.09463 -0.3652,-0.32705 -3.58901,-1.63961 -7.16401,-2.9168 -3.575,-1.27719 -9.56218,-3.84019 -13.304834,-5.69555 l -6.804834,-3.37339 -8.627362,6.79018 c -4.745049,3.73461 -9.557873,7.33674 -10.695166,8.00475 -2.610806,1.53351 -9.02185,1.62914 -11.883545,0.17726 C 56.555929,273.30466 32.138168,249.02143 30.43093,245.79966 29.643918,244.31447 29,241.3008 29,239.10262 c 0,-3.99514 2.142041,-7.44172 13.09821,-21.0752 l 2.950308,-3.67127 -3.382144,-7.42807 C 39.806196,202.84263 37.259983,196.6875 36.008125,193.25 c -1.501406,-4.12274 -2.826134,-6.25664 -3.892116,-6.26952 -0.888805,-0.0107 -6.46786,-0.66532 -12.397901,-1.45462 C 1.2856391,183.07246 0.5,181.78044 0.5,153.92065 V 134.3413 l 2.7389605,-3.58945 C 6.510368,126.46461 9.3354371,125.46852 22.5,123.96063 c 5.5,-0.62998 10.051452,-1.21634 10.114337,-1.30302 0.06289,-0.0867 1.13482,-3.30761 2.382077,-7.15761 1.247257,-3.85 3.8301,-10.45287 5.739651,-14.67305 l 3.471911,-7.673055 -5.612543,-7.034288 C 30.039076,75.395793 28.665297,72.661828 29.245688,67.512622 29.858259,62.077905 32.337963,58.862663 46.729534,44.842656 62.4634,29.515011 65.380808,29.098744 79.869464,40.114123 l 9.103989,6.921546 7.763273,-3.887132 C 101.00653,41.010615 107.65,38.233431 111.5,36.977018 c 3.85,-1.256413 7.49377,-2.77773 8.09727,-3.380703 0.6035,-0.602973 1.58638,-5.504016 2.18417,-10.891206 C 123.01722,11.568489 124.82235,7.6400867 130,4.81957 c 3.1703,-1.7270189 5.38398,-1.878971 23.5,-1.6130954 17.33581,0.2544251 20.35485,0.5344426 22.66385,2.102086 3.94085,2.6755525 5.69652,7.3219654 7.01596,18.5677944 l 1.18267,10.080117 7.61806,2.537048 c 4.18994,1.395377 11.08056,4.276507 15.31251,6.402512 l 7.69443,3.865463 8.15891,-6.375891 c 8.65518,-6.763716 13.13565,-8.656752 18.2204,-7.698278 4.58938,0.865095 32.10373,28.482016 32.97662,33.099546 0.92722,4.904964 -1.25574,9.874698 -8.14613,18.54553 C 262.78878,88.621644 260,92.339376 260,92.594029 c 0,0.254652 1.41618,3.262672 3.14707,6.684488 1.73089,3.421813 4.35827,9.821483 5.83863,14.221483 l 2.69156,8 10.26984,1.20825 c 11.8417,1.39318 16.59854,3.45491 19.21127,8.32664 1.60407,2.99095 1.84143,5.88684 1.84008,22.44951 -0.002,27.0032 -1.13105,28.68572 -20.68903,30.83676 l -10.77227,1.18477 -3.06242,8.49703 c -1.68434,4.67337 -4.50848,11.32945 -6.27587,14.79129 l -3.21343,6.29425 5.30395,6.70575 c 10.74121,13.58003 11.89689,16.43084 9.23932,22.79131 -1.89992,4.54714 -24.39327,27.64776 -29.09206,29.87748 -6.96923,3.30712 -11.59302,1.78409 -23.10803,-7.61156 C 217.38435,263.63317 213.73414,261 213.21704,261 c -0.51711,0 -4.71498,1.76479 -9.32862,3.92175 -4.61363,2.15697 -11.15378,4.73306 -14.53366,5.72465 l -6.14524,1.80289 -1.20746,11.02536 c -1.43207,13.07623 -2.65024,16.42528 -7.13892,19.62669 -3.22128,2.29748 -4.14349,2.40935 -21.86314,2.65208 -14.2617,0.19536 -19.41639,-0.0821 -22.5,-1.211 z m 38.92432,-99.68536 c 8.32596,-2.80482 13.9749,-6.31906 20.63838,-12.83927 C 201.85255,180.48142 206.47219,169.49637 206.47118,153 206.4702,136.84404 202.03135,126.14246 190.58214,114.69325 179.83832,103.94943 167.71715,98.933143 152.5,98.933143 c -15.5852,0 -27.62962,5.044447 -38.597,16.165217 -23.909889,24.24427 -20.555856,61.96585 7.33537,82.4982 13.4077,9.87019 32.08519,12.68445 48.18595,7.2605 z"
         id="path2" />
    </g>
  </g>
</svg>
