<svg xmlns="http://www.w3.org/2000/svg" version="1.1" xmlns:xlink="http://www.w3.org/1999/xlink" xmlns:svgjs="http://svgjs.dev/svgjs" width="1440" height="560" preserveAspectRatio="none" viewBox="0 0 1440 560"><g clip-path="url(&quot;#SvgjsClipPath1019&quot;)" fill="none"><circle r="93.335" cx="-21.77" cy="-50.09" stroke="#808080" stroke-opacity="1" stroke-width="2"></circle><circle r="93.335" cx="326.45" cy="451.83" stroke="#808080" stroke-opacity="1" stroke-width="2"></circle><circle r="93.335" cx="720.35" cy="743.93" stroke="#808080" stroke-opacity="1" stroke-width="2"></circle><circle r="103.285" cx="681.52" cy="59.19" stroke="#808080" stroke-opacity="1" stroke-width="2"></circle><circle r="178.72" cx="1314.69" cy="117.66" stroke="#808080" stroke-opacity="1" stroke-width="2"></circle><circle r="144.485" cx="1168.46" cy="200.14" stroke="#808080" stroke-opacity="1" stroke-width="2"></circle><circle r="66.195" cx="847.64" cy="203.91" stroke="#808080" stroke-opacity="1" stroke-width="2"></circle><circle r="138.975" cx="202.21" cy="46.26" stroke="#808080" stroke-opacity="1" stroke-width="2"></circle><circle r="141.57" cx="545.15" cy="538.52" stroke="#808080" stroke-opacity="1" stroke-width="2"></circle><circle r="76.965" cx="958.66" cy="460.51" stroke="#808080" stroke-opacity="1" stroke-width="2"></circle><circle r="124.62" cx="189.88" cy="364.3" stroke="#808080" stroke-opacity="1" stroke-width="2"></circle><circle r="181.28" cx="1169.3" cy="517.24" stroke="#808080" stroke-opacity="1" stroke-width="2"></circle><circle r="82.545" cx="628.25" cy="325.69" stroke="#808080" stroke-opacity="1" stroke-width="2"></circle><circle r="129.745" cx="1306.68" cy="241.9" stroke="#808080" stroke-opacity="1" stroke-width="2"></circle><circle r="48.535" cx="255.8" cy="427.4" stroke="#808080" stroke-opacity="1" stroke-width="2"></circle><circle r="160.78" cx="1182.59" cy="323.79" stroke="#808080" stroke-opacity="1" stroke-width="2"></circle><circle r="181.1" cx="177.64" cy="424.98" stroke="#808080" stroke-opacity="1" stroke-width="2"></circle><circle r="95.405" cx="710.42" cy="226.39" stroke="#808080" stroke-opacity="1" stroke-width="2"></circle><circle r="94.25" cx="1002.76" cy="209.63" stroke="#808080" stroke-opacity="1" stroke-width="2"></circle><circle r="167.64" cx="824.59" cy="279.7" stroke="#808080" stroke-opacity="1" stroke-width="2"></circle></g><defs><clipPath id="SvgjsClipPath1019"><rect width="1440" height="560" x="0" y="0"></rect></clipPath></defs></svg>