<svg xmlns="http://www.w3.org/2000/svg" version="1.1" xmlns:xlink="http://www.w3.org/1999/xlink" xmlns:svgjs="http://svgjs.dev/svgjs" width="1440" height="250" preserveAspectRatio="none" viewBox="0 0 1440 250"><g mask="url(&quot;#SvgjsMask1463&quot;)" fill="none"><rect width="1440" height="250" x="0" y="0" fill="url(&quot;#SvgjsLinearGradient1464&quot;)"></rect><path d="M20 250L270 0L588 0L338 250z" fill="url(&quot;#SvgjsLinearGradient1465&quot;)"></path><path d="M277.6 250L527.6 0L751.1 0L501.1 250z" fill="url(&quot;#SvgjsLinearGradient1465&quot;)"></path><path d="M508.20000000000005 250L758.2 0L1032.7 0L782.7 250z" fill="url(&quot;#SvgjsLinearGradient1465&quot;)"></path><path d="M753.8000000000001 250L1003.8000000000001 0L1132.8000000000002 0L882.8000000000001 250z" fill="url(&quot;#SvgjsLinearGradient1465&quot;)"></path><path d="M1413 250L1163 0L983 0L1233 250z" fill="url(&quot;#SvgjsLinearGradient1466&quot;)"></path><path d="M1180.4 250L930.4000000000001 0L882.4000000000001 0L1132.4 250z" fill="url(&quot;#SvgjsLinearGradient1466&quot;)"></path><path d="M928.8 250L678.8 0L461.29999999999995 0L711.3 250z" fill="url(&quot;#SvgjsLinearGradient1466&quot;)"></path><path d="M691.1999999999999 250L441.19999999999993 0L163.69999999999993 0L413.69999999999993 250z" fill="url(&quot;#SvgjsLinearGradient1466&quot;)"></path><path d="M1241.4169496848149 250L1440 51.41694968481488L1440 250z" fill="url(&quot;#SvgjsLinearGradient1465&quot;)"></path><path d="M0 250L198.58305031518512 250L 0 51.41694968481488z" fill="url(&quot;#SvgjsLinearGradient1466&quot;)"></path></g><defs><mask id="SvgjsMask1463"><rect width="1440" height="250" fill="#ffffff"></rect></mask><linearGradient x1="20.66%" y1="-119%" x2="79.34%" y2="219%" gradientUnits="userSpaceOnUse" id="SvgjsLinearGradient1464"><stop stop-color="rgba(247, 245, 242, 1)" offset="0"></stop><stop stop-color="rgba(128, 128, 128, 1)" offset="1"></stop></linearGradient><linearGradient x1="0%" y1="100%" x2="100%" y2="0%" id="SvgjsLinearGradient1465"><stop stop-color="rgba(250, 250, 250, 1)" offset="0"></stop><stop stop-opacity="0" stop-color="rgba(250, 250, 250, 1)" offset="0.66"></stop></linearGradient><linearGradient x1="100%" y1="100%" x2="0%" y2="0%" id="SvgjsLinearGradient1466"><stop stop-color="rgba(250, 250, 250, 1)" offset="0"></stop><stop stop-opacity="0" stop-color="rgba(250, 250, 250, 1)" offset="0.66"></stop></linearGradient></defs></svg>