<svg xmlns="http://www.w3.org/2000/svg" version="1.1" xmlns:xlink="http://www.w3.org/1999/xlink" xmlns:svgjs="http://svgjs.dev/svgjs" width="1440" height="560" preserveAspectRatio="none" viewBox="0 0 1440 560"><g mask="url(&quot;#SvgjsMask1004&quot;)" fill="none"><rect width="1440" height="560" x="0" y="0" fill="url(&quot;#SvgjsRadialGradient1005&quot;)"></rect><path d="M0 0L420.29 0L0 266.42z" fill="rgba(255, 255, 255, .1)"></path><path d="M0 266.42L420.29 0L604.8 0L0 367.91z" fill="rgba(255, 255, 255, .075)"></path><path d="M0 367.91L604.8 0L1016.42 0L0 444.26z" fill="rgba(255, 255, 255, .05)"></path><path d="M0 444.26L1016.42 0L1292.71 0L0 502.35z" fill="rgba(255, 255, 255, .025)"></path><path d="M1440 560L1021.73 560L1440 493.75z" fill="rgba(0, 0, 0, .1)"></path><path d="M1440 493.75L1021.73 560L571.6600000000001 560L1440 221.11z" fill="rgba(0, 0, 0, .075)"></path><path d="M1440 221.11L571.6600000000001 560L221.56000000000006 560L1440 180.82000000000002z" fill="rgba(0, 0, 0, .05)"></path><path d="M1440 180.82L221.55999999999995 560L136.13999999999993 560L1440 109.96z" fill="rgba(0, 0, 0, .025)"></path></g><defs><mask id="SvgjsMask1004"><rect width="1440" height="560" fill="#ffffff"></rect></mask><radialGradient cx="100%" cy="0%" r="1545.06" gradientUnits="userSpaceOnUse" id="SvgjsRadialGradient1005"><stop stop-color="rgba(250, 250, 250, 1)" offset="0.53"></stop><stop stop-color="rgba(247, 245, 242, 1)" offset="0.92"></stop></radialGradient></defs></svg>