<svg xmlns="http://www.w3.org/2000/svg" version="1.1" xmlns:xlink="http://www.w3.org/1999/xlink" xmlns:svgjs="http://svgjs.dev/svgjs" viewBox="0 0 800 800"><g transform="matrix(1,0,0,1,0,0)"><rect width="100" height="100" x="634" y="634" stroke-width="4" stroke="#808080" fill="none" opacity="0.1" transform="rotate(100, 400, 400)"></rect><rect width="106.91666666666667" height="106.91666666666667" x="605.375" y="603.9583333333333" stroke-width="5" stroke="#8e7b7b" fill="none" opacity="0.175" transform="rotate(92, 400, 400)"></rect><rect width="113.83333333333333" height="113.83333333333333" x="576.75" y="573.9166666666667" stroke-width="6" stroke="#9b7575" fill="none" opacity="0.25" transform="rotate(84, 400, 400)"></rect><rect width="120.75" height="120.75" x="548.125" y="543.875" stroke-width="7" stroke="#a7706f" fill="none" opacity="0.32499999999999996" transform="rotate(76, 400, 400)"></rect><rect width="127.66666666666667" height="127.66666666666667" x="519.5" y="513.8333333333333" stroke-width="8" stroke="#b26a69" fill="none" opacity="0.4" transform="rotate(68, 400, 400)"></rect><rect width="134.58333333333334" height="134.58333333333334" x="490.87499999999994" y="483.7916666666667" stroke-width="9" stroke="#bc6363" fill="none" opacity="0.475" transform="rotate(60, 400, 400)"></rect><rect width="141.5" height="141.5" x="462.25" y="453.75" stroke-width="10" stroke="#c65d5c" fill="none" opacity="0.5499999999999999" transform="rotate(52, 400, 400)"></rect><rect width="148.41666666666669" height="148.41666666666669" x="433.625" y="423.70833333333337" stroke-width="11" stroke="#cf5554" fill="none" opacity="0.625" transform="rotate(44, 400, 400)"></rect><rect width="155.33333333333334" height="155.33333333333334" x="404.99999999999994" y="393.6666666666667" stroke-width="12" stroke="#d84d4c" fill="none" opacity="0.7" transform="rotate(36, 400, 400)"></rect><rect width="162.25" height="162.25" x="376.375" y="363.625" stroke-width="13" stroke="#e14443" fill="none" opacity="0.7749999999999999" transform="rotate(28, 400, 400)"></rect><rect width="169.16666666666669" height="169.16666666666669" x="347.75" y="333.58333333333337" stroke-width="14" stroke="#e93a38" fill="none" opacity="0.85" transform="rotate(20, 400, 400)"></rect><rect width="176.08333333333334" height="176.08333333333334" x="319.12499999999994" y="303.5416666666667" stroke-width="15" stroke="#f12d2a" fill="none" opacity="0.9249999999999999" transform="rotate(12, 400, 400)"></rect><rect width="183" height="183" x="290.5" y="273.5" stroke-width="16" stroke="#f91b15" fill="none" opacity="0.9999999999999999" transform="rotate(4, 400, 400)"></rect></g></svg>