<svg xmlns="http://www.w3.org/2000/svg" version="1.1" xmlns:xlink="http://www.w3.org/1999/xlink" xmlns:svgjs="http://svgjs.dev/svgjs" width="1440" height="560" preserveAspectRatio="none" viewBox="0 0 1440 560"><g mask="url(&quot;#SvgjsMask1004&quot;)" fill="none"><rect width="1440" height="560" x="0" y="0" fill="url(&quot;#SvgjsRadialGradient1005&quot;)"></rect><path d="M1440 0L757.13 0L1440 61.14z" fill="rgba(255, 255, 255, .1)"></path><path d="M757.13 0L1440 61.14L1440 81.86L567.0799999999999 0z" fill="rgba(255, 255, 255, .075)"></path><path d="M567.0799999999999 0L1440 81.86L1440 311.36L414.5999999999999 0z" fill="rgba(255, 255, 255, .05)"></path><path d="M414.5999999999999 0L1440 311.36L1440 486.98L234.8199999999999 0z" fill="rgba(255, 255, 255, .025)"></path><path d="M0 560L263.44 560L0 312.83000000000004z" fill="rgba(0, 0, 0, .1)"></path><path d="M0 312.83000000000004L263.44 560L492.65999999999997 560L0 156.57000000000005z" fill="rgba(0, 0, 0, .075)"></path><path d="M0 156.57000000000005L492.65999999999997 560L1049.2199999999998 560L0 101.54000000000005z" fill="rgba(0, 0, 0, .05)"></path><path d="M0 101.54000000000008L1049.2199999999998 560L1170.4299999999998 560L0 50.770000000000074z" fill="rgba(0, 0, 0, .025)"></path></g><defs><mask id="SvgjsMask1004"><rect width="1440" height="560" fill="#ffffff"></rect></mask><radialGradient cx="100%" cy="0%" r="1545.06" gradientUnits="userSpaceOnUse" id="SvgjsRadialGradient1005"><stop stop-color="rgba(250, 250, 250, 1)" offset="0.53"></stop><stop stop-color="rgba(247, 245, 242, 1)" offset="0.92"></stop></radialGradient></defs></svg>