<svg xmlns="http://www.w3.org/2000/svg" version="1.1" xmlns:xlink="http://www.w3.org/1999/xlink" xmlns:svgjs="http://svgjs.dev/svgjs" width="1440" height="560" preserveAspectRatio="none" viewBox="0 0 1440 560"><g mask="url(&quot;#SvgjsMask1000&quot;)" fill="none"><path d="M -541.0232849239003,339 C -445.02,317.8 -253.02,222.4 -61.02328492390033,233 C 130.98,243.6 226.98,436 418.97671507609965,392 C 610.98,348 706.98,5.4 898.9767150760997,13 C 1090.98,20.6 1270.77,424 1378.9767150760997,430 C 1487.18,436 1427.8,120.4 1440,43" stroke="rgba(249, 27, 21, 1)" stroke-width="2"></path><path d="M -120.75820535628782,482 C -24.76,430.2 167.24,225.6 359.2417946437122,223 C 551.24,220.4 647.24,504 839.2417946437122,469 C 1031.24,434 1127.24,34.4 1319.2417946437122,48 C 1511.24,61.6 1775.09,538.8 1799.2417946437122,537 C 1823.39,535.2 1511.85,138.6 1440,39" stroke="rgba(249, 27, 21, 1)" stroke-width="2"></path><path d="M -21.91396932965131,303 C 74.09,284 266.09,158.8 458.0860306703487,208 C 650.09,257.2 746.09,572 938.0860306703487,549 C 1130.09,526 1226.09,126.2 1418.0860306703487,93 C 1610.09,59.8 1893.7,396.6 1898.0860306703487,383 C 1902.47,369.4 1531.62,96.6 1440,25" stroke="rgba(249, 27, 21, 1)" stroke-width="2"></path><path d="M -252.12889120551807,289 C -156.13,231.6 35.87,-48.8 227.87110879448193,2 C 419.87,52.8 515.87,516 707.8711087944819,543 C 899.87,570 995.87,151.2 1187.8711087944819,137 C 1379.87,122.8 1617.45,459 1667.8711087944819,472 C 1718.3,485 1485.57,256 1440,202" stroke="rgba(249, 27, 21, 1)" stroke-width="2"></path></g><defs><mask id="SvgjsMask1000"><rect width="1440" height="560" fill="#ffffff"></rect></mask></defs></svg>