<?xml version="1.0" encoding="UTF-8" standalone="no" ?>
<!DOCTYPE svg PUBLIC "-//W3C//DTD SVG 1.1//EN" "http://www.w3.org/Graphics/SVG/1.1/DTD/svg11.dtd">
<svg xmlns="http://www.w3.org/2000/svg" xmlns:xlink="http://www.w3.org/1999/xlink" version="1.1" width="2224" height="991" viewBox="0 0 2224 991" xml:space="preserve">
<desc>Created with Fabric.js 5.3.0</desc>
<defs>
</defs>
<g transform="matrix(0.6133855906 0 0 0.4844217453 2150.397342553 21.7333143174)" id="aOXNhtyW-Ye4eTTDMetTf"  >
<path style="stroke: rgb(0,0,0); stroke-width: 1; stroke-dasharray: none; stroke-linecap: butt; stroke-dashoffset: 0; stroke-linejoin: miter; stroke-miterlimit: 4; fill: rgb(0,0,0); fill-rule: nonzero; opacity: 1;"  transform=" translate(0.0000033333, 0.000005)" d="M -88.88889 -15.50418 C -91.01655000000001 -0.6105599999999995 -88.88889 31.91489 -88.88889 31.91489 L 89.83451 31.91489 L 89.83451 -31.914900000000003 L -88.88889 -31.914900000000003 C -88.88889 -31.914900000000003 -86.76123 -30.397800000000004 -88.88889 -15.504190000000001 z" stroke-linecap="round" />
</g>
<g transform="matrix(1 0 0 1 2154.4419302091 501.215421932)" id="_O2R0wLLoxvdNPXLWNGXq"  >
<path style="stroke: rgb(0,0,0); stroke-width: 1; stroke-dasharray: none; stroke-linecap: butt; stroke-dashoffset: 0; stroke-linejoin: miter; stroke-miterlimit: 4; fill: rgb(0,0,0); fill-rule: nonzero; opacity: 1;"  transform=" translate(0, -0.000005)" d="M -50.8653 -430.13644 L -50.8653 430.13644999999997 L 50.8653 430.13644999999997 L 50.8653 -430.13644 z" stroke-linecap="round" />
</g>
<g transform="matrix(1 0 0 1 2147.4567277169 961.7389501811)" id="jCFQxDDv1tsp9NgsImbFC"  >
<path style="stroke: rgb(0,0,0); stroke-width: 1; stroke-dasharray: none; stroke-linecap: butt; stroke-dashoffset: 0; stroke-linejoin: miter; stroke-miterlimit: 4; fill: rgb(0,0,0); fill-rule: nonzero; opacity: 1;"  transform=" translate(-0.000005, 0.000005)" d="M -58.3505 -18.74409 L -58.3505 18.744079999999997 L 58.35051 18.744079999999997 L 58.35051 -18.74409 z" stroke-linecap="round" />
</g>
<g transform="matrix(0.6133855906 0 0 0.4844217453 77.6286205015 21.7333149882)" id="0MyvPh2wJuEi_9dMyfpHo"  >
<path style="stroke: rgb(0,0,0); stroke-width: 1; stroke-dasharray: none; stroke-linecap: butt; stroke-dashoffset: 0; stroke-linejoin: miter; stroke-miterlimit: 4; fill: rgb(0,0,0); fill-rule: nonzero; opacity: 1;"  transform=" translate(0.0000033333, 0.000005)" d="M -88.88889 -15.50418 C -91.01655000000001 -0.6105599999999995 -88.88889 31.91489 -88.88889 31.91489 L 89.83451 31.91489 L 89.83451 -31.914900000000003 L -88.88889 -31.914900000000003 C -88.88889 -31.914900000000003 -86.76123 -30.397800000000004 -88.88889 -15.504190000000001 z" stroke-linecap="round" />
</g>
<g transform="matrix(1 0 0 1 77.6286205015 503.8526210806)" id="1UMBJE-Ym589tVxgQ6nab"  >
<path style="stroke: rgb(0,0,0); stroke-width: 1; stroke-dasharray: none; stroke-linecap: butt; stroke-dashoffset: 0; stroke-linejoin: miter; stroke-miterlimit: 4; fill: rgb(0,0,0); fill-rule: nonzero; opacity: 1;"  transform=" translate(0, -0.000005)" d="M -50.8653 -430.13644 L -50.8653 430.13644999999997 L 50.8653 430.13644999999997 L 50.8653 -430.13644 z" stroke-linecap="round" />
</g>
<g transform="matrix(1 0 0 1 77.6286205015 964.8760087973)" id="G61yq5Gl3xMYsWZGp3kdd"  >
<path style="stroke: rgb(0,0,0); stroke-width: 1; stroke-dasharray: none; stroke-linecap: butt; stroke-dashoffset: 0; stroke-linejoin: miter; stroke-miterlimit: 4; fill: rgb(0,0,0); fill-rule: nonzero; opacity: 1;"  transform=" translate(-0.000005, 0.000005)" d="M -58.3505 -18.74409 L -58.3505 18.744079999999997 L 58.35051 18.744079999999997 L 58.35051 -18.74409 z" stroke-linecap="round" />
</g>
<g transform="matrix(1 0 0 1 1112.6525974026 494.0474025974)" id="SeT_Wc0oBF7mkuiYqkTtO"  >
<path style="stroke: none; stroke-width: 1; stroke-dasharray: none; stroke-linecap: butt; stroke-dashoffset: 0; stroke-linejoin: miter; stroke-miterlimit: 4; fill: rgb(249,27,21); fill-rule: evenodd; opacity: 1;"  transform=" translate(-1112.05, -495.45)" d="M 12.5 -0.1 L 141.6 -0.1 L 153.29999999999998 11.700000000000001 L 153.29999999999998 35.1 C 153.29999999999998 43 145.39999999999998 46.900000000000006 129.79999999999998 46.900000000000006 L 129.79999999999998 70.30000000000001 L 2094.3 70.30000000000001 L 2094.3 46.90000000000001 Q 2076.7000000000003 46.90000000000001 2076.7000000000003 35.10000000000001 L 2076.7000000000003 11.70000000000001 L 2088.4 -0.09999999999999076 L 2211.5 -0.09999999999999076 L 2223.3 11.70000000000001 L 2223.3 35.10000000000001 Q 2223.3 46.900000000000006 2205.7000000000003 46.900000000000006 L 2205.7000000000003 938.1999999999999 Q 2223.3 938.1999999999999 2223.3 949.9 L 2223.3 979.1999999999999 L 2211.5 990.9999999999999 L 2088.4 990.9999999999999 L 2076.7000000000003 979.1999999999999 L 2076.7000000000003 949.9 Q 2076.7000000000003 938.1999999999999 2094.3 938.1999999999999 L 2094.3 914.6999999999999 L 141.60000000000014 914.6999999999999 L 129.80000000000013 926.4999999999999 L 129.80000000000013 938.1999999999999 Q 153.30000000000013 938.1999999999999 153.30000000000013 949.9 L 153.30000000000013 979.1999999999999 L 141.60000000000014 990.9999999999999 L 12.500000000000142 990.9999999999999 L 0.8000000000001428 979.1999999999999 L 0.8000000000001428 949.9 Q 0.8000000000001428 938.1999999999999 24.300000000000143 938.1999999999999 L 24.300000000000143 46.89999999999998 Q 0.8000000000001428 46.89999999999998 0.8000000000001428 35.09999999999998 L 0.8000000000001428 11.699999999999982 z M 2100.1 949.9 L 2100.1 973.3 L 2199.7999999999997 973.3 L 2199.7999999999997 949.9 z M 2100.1 11.600000000000023 L 2100.1 29.200000000000024 L 2199.7999999999997 29.200000000000024 L 2199.7999999999997 11.600000000000023 z M 2088.2999999999997 598 Q 2086.8999999999996 627.4 2029.6999999999998 691.9 L 2094.2 721.1999999999999 L 2094.2 597.9999999999999 z M 2023.7999999999997 293.1 Q 2088.2999999999997 362 2088.2999999999997 392.8 L 2094.2 392.8 L 2094.2 269.6 z M 1935.7999999999997 738.8 L 1935.7999999999997 744.6999999999999 L 2058.9999999999995 744.6999999999999 L 2058.9999999999995 738.8 L 2000.2999999999995 715.3 z M 1994.4999999999998 316.59999999999997 Q 1918.1999999999998 395.79999999999995 1918.1999999999998 492.59999999999997 Q 1918.1999999999998 604 2000.2999999999997 668.5 Q 2076.4999999999995 599.6 2076.6 486.7 Q 2076.6 387 1994.5 316.6 z M 1918.1999999999998 234.49999999999997 L 1918.1999999999998 240.39999999999998 L 2000.2999999999997 275.59999999999997 Q 2000.2999999999997 263.9 2064.7999999999997 240.39999999999998 L 2064.7999999999997 234.49999999999997 z M 1912.3999999999999 785.8 L 1924.1 803.3 L 1924.1 850.3 L 1906.5 873.6999999999999 L 1906.5 879.5999999999999 L 2094.2 879.5999999999999 L 2094.2 785.8 z M 1900.6 105.5 L 1924.1 140.7 L 1924.1 187.6 L 1912.3999999999999 205.2 L 2094.1 205.2 L 2094.1 105.49999999999999 z M 1806.8 826.8 L 1806.8 838.5 L 1830.3 862 L 1865.5 862 L 1888.9 838.5 L 1888.9 826.8 Q 1888.9 785.8 1842 785.8 Q 1806.8 785.8 1806.8 826.8 z M 1806.8 152.39999999999998 L 1806.8 164.2 Q 1806.8 205.2 1853.7 205.2 Q 1878.7 197.89999999999998 1888.9 175.89999999999998 L 1888.9 152.39999999999998 Q 1874.2 123.09999999999998 1842 123.09999999999998 Q 1818.5 131.89999999999998 1806.8 152.39999999999998 z M 1795.1 498.4 Q 1817.1 533.6 1847.8999999999999 533.6 Q 1872.8 526.3000000000001 1883.1 504.3 L 1883.1 475 C 1877.1999999999998 459.3 1863.5 451.5 1842 451.5 L 1824.4 451.5 Q 1795.1000000000001 467.6 1795.1000000000001 498.4 z M 1847.8999999999999 551.1999999999999 L 1836.1 551.1999999999999 L 1806.8 545.3 Q 1795.1 612.8 1730.6 686.0999999999999 Q 1798 721.3 1818.6 721.3 L 1883.1 721.3 Q 1965.1999999999998 706.5999999999999 1965.1999999999998 686.0999999999999 L 1965.1999999999998 680.1999999999999 C 1942.6999999999998 680.1999999999999 1915.2999999999997 633.3 1883.1 539.5 z M 1730.6 298.99999999999994 Q 1800.8999999999999 376.69999999999993 1800.8999999999999 433.9 L 1847.8999999999999 428 L 1888.8999999999999 439.7 L 1888.8999999999999 433.9 Q 1888.8999999999999 385.5 1965.1 293.2 Q 1903.6 263.8 1853.6999999999998 263.8 Q 1800.8999999999999 263.8 1730.6 299 z M 1636.8 738.8 L 1636.8 744.6999999999999 L 1771.6 744.6999999999999 L 1771.6 738.8 Q 1751.1 738.8 1701.3 709.5 Q 1657.3 738.8 1636.8 738.8 z M 1695.3999999999999 328.29999999999995 Q 1630.8999999999999 414.79999999999995 1630.8999999999999 498.4 C 1630.8999999999999 560 1656.3 614.6999999999999 1707.1 662.5999999999999 Q 1777.5 568.8 1777.5 492.4999999999999 Q 1777.5 410.39999999999986 1707.1 328.2999999999999 z M 1625.1 234.49999999999994 L 1625.1 240.39999999999995 C 1675.8999999999999 257.99999999999994 1701.3 271.69999999999993 1701.3 281.4 Q 1749.7 250.59999999999997 1789.2 240.39999999999998 L 1789.2 234.49999999999997 z M 1613.3999999999999 785.7 L 1625.1 838.5 L 1601.6999999999998 879.5 L 1789.2999999999997 879.5 L 1789.2999999999997 873.7 Q 1771.6999999999998 853.2 1771.6999999999998 832.6 L 1771.6999999999998 820.9 L 1783.4999999999998 785.6999999999999 z M 1595.8 105.5 Q 1625.1 139.2 1625.1 164.1 L 1613.3999999999999 205.2 L 1783.3999999999999 205.2 L 1771.6999999999998 170 L 1771.6999999999998 158.3 Q 1771.6999999999998 140.70000000000002 1795.1999999999998 105.50000000000001 z M 1507.8 826.8 Q 1507.8 861.9 1543 862 L 1566.4 862 Q 1589.9 853.2 1589.9 820.9 Q 1582.5 785.6999999999999 1537.1000000000001 785.6999999999999 Q 1507.8000000000002 794.4999999999999 1507.8000000000002 826.8 z M 1507.8 474.9 L 1507.8 504.29999999999995 Q 1523.8999999999999 533.5999999999999 1554.7 533.5999999999999 Q 1581.1000000000001 527.6999999999999 1595.8 498.3999999999999 Q 1595.7 467.5999999999999 1566.3999999999999 451.49999999999994 L 1548.8 451.49999999999994 C 1528.3 451.49999999999994 1514.6 459.29999999999995 1507.8 474.8999999999999 z M 1507.8 152.39999999999998 L 1507.8 175.89999999999998 C 1517.6 195.39999999999998 1533.2 205.2 1554.7 205.2 Q 1579.6000000000001 197.89999999999998 1589.9 175.89999999999998 L 1589.9 152.39999999999998 Q 1575.2 123.09999999999998 1543 123.09999999999998 Q 1519.5 131.89999999999998 1507.8 152.39999999999998 z M 1554.7 551.2 L 1543 551.2 L 1513.7 545.3000000000001 Q 1513.6000000000001 612.7 1437.4 691.9000000000001 Q 1491.7 721.2 1525.4 721.2 L 1578.2 721.2 Q 1630.9 721.2 1672 680.2 Q 1601.6 608.4000000000001 1601.6 539.4000000000001 z M 1437.4 287.30000000000007 L 1437.4 299.1000000000001 Q 1513.6000000000001 382.6000000000001 1513.7 434.0000000000001 L 1543 428.10000000000014 L 1548.9 428.10000000000014 Q 1579.6000000000001 428.10000000000014 1601.6000000000001 445.70000000000016 Q 1601.6000000000001 385.60000000000014 1677.9 299.10000000000014 Q 1626.5 269.8000000000001 1554.7 258.0000000000001 z M 1355.3000000000002 738.9000000000001 L 1355.3000000000002 744.7 L 1460.9 744.7 L 1460.9 738.9000000000001 L 1408.1000000000001 715.4000000000001 z M 1337.7000000000003 785.8000000000001 L 1349.4000000000003 821.0000000000001 Q 1349.4000000000003 856.2000000000002 1326.0000000000002 879.6000000000001 L 1496.0000000000002 879.6000000000001 Q 1472.6000000000001 856.2000000000002 1472.6000000000001 832.7000000000002 L 1472.6000000000001 821.0000000000001 L 1484.3000000000002 785.8000000000001 z M 1402.2000000000003 316.70000000000005 Q 1326.0000000000002 412.00000000000006 1326.0000000000002 492.6 Q 1326.0000000000002 595.2 1413.9000000000003 668.5 Q 1484.3000000000004 590.8 1484.3000000000004 486.7 Q 1484.3000000000004 391.5 1402.2000000000005 316.7 z M 1326.0000000000002 234.60000000000005 L 1326.0000000000002 240.50000000000006 Q 1350.9000000000003 240.50000000000006 1402.2000000000003 275.6000000000001 L 1472.6000000000004 234.60000000000008 z M 1320.1000000000001 105.60000000000005 Q 1349.4 134.90000000000006 1349.4 170.10000000000005 L 1337.7 205.30000000000007 L 1484.3 205.30000000000007 L 1472.6 170.10000000000008 L 1472.6 158.4000000000001 Q 1472.6 136.4000000000001 1501.8999999999999 105.6000000000001 z M 1226.3000000000002 826.9 Q 1226.3000000000002 862 1267.3000000000002 862 L 1267.3000000000002 867.9 Q 1296.6000000000001 867.9 1314.2000000000003 838.6 L 1314.2000000000003 815.1 L 1284.9000000000003 785.8000000000001 L 1273.2000000000003 785.8000000000001 Q 1226.3000000000002 791.7 1226.3000000000002 826.9000000000001 z M 1226.3000000000002 158.39999999999998 Q 1226.3000000000002 205.29999999999998 1279.1000000000001 205.29999999999998 Q 1304.0000000000002 197.99999999999997 1314.2 175.99999999999997 L 1314.2 152.49999999999997 Q 1299.6000000000001 123.19999999999997 1267.3 123.19999999999997 Q 1232.1 136.39999999999998 1226.3 158.39999999999998 z M 1208.7000000000003 480.9 L 1208.7000000000003 498.5 Q 1229.2000000000003 533.7 1255.6000000000004 533.7 C 1279.1000000000004 533.7 1292.7000000000003 518 1296.6000000000004 486.70000000000005 C 1296.6000000000004 463.30000000000007 1282.9000000000003 451.6 1255.6000000000004 451.6 L 1238.0000000000005 451.6 z M 1261.5000000000002 551.1999999999999 L 1232.1000000000001 551.1999999999999 L 1226.3000000000002 545.4 L 1220.4 545.4 Q 1207.2 612.8 1144.2 686.0999999999999 Q 1144.2 713.9999999999999 1261.5 727.1999999999999 Q 1378.7 711.0999999999999 1378.7 686.0999999999999 Q 1296.6000000000001 611.3 1296.7 539.4999999999999 z M 1138.3000000000002 299.0999999999999 Q 1214.5000000000002 386.9999999999999 1214.5000000000002 433.8999999999999 L 1243.9000000000003 428.0999999999999 L 1249.7000000000003 428.0999999999999 L 1296.6000000000004 439.7999999999999 C 1296.6000000000004 409.4999999999999 1322.0000000000005 360.5999999999999 1372.9000000000003 293.19999999999993 Q 1311.3000000000004 263.8999999999999 1261.5000000000002 263.8999999999999 L 1249.7000000000003 263.8999999999999 Q 1217.5000000000002 263.8999999999999 1138.3000000000002 299.0999999999999 z M 1050.4 738.8999999999999 L 1050.4 744.6999999999998 L 1173.5 744.6999999999998 L 1173.5 738.8999999999999 L 1109 715.3999999999999 z M 1038.7 474.9999999999999 L 1038.7 516.0999999999999 Q 1038.7 562.9999999999999 1103.2 662.6999999999999 L 1109 662.6999999999999 Q 1144.2 650.9 1185.3 533.6999999999999 L 1179.3999999999999 527.8 L 1179.3999999999999 521.9 L 1185.3 492.59999999999997 L 1179.3999999999999 463.29999999999995 L 1185.3 463.29999999999995 Q 1185.3 429.59999999999997 1120.8 328.4 L 1109 328.4 Q 1038.7 413.4 1038.7 475 z M 1026.9 234.59999999999988 L 1026.9 240.4999999999999 Q 1054.8000000000002 240.4999999999999 1109 281.4999999999999 Q 1176.4 240.4999999999999 1197 240.4999999999999 L 1197 234.59999999999988 z M 1026.9 785.8 L 1038.6000000000001 832.6999999999999 L 1015.2000000000002 879.5999999999999 L 1220.4 879.5999999999999 Q 1197 856.1999999999999 1197 832.6999999999999 L 1197 820.9999999999999 L 1208.7 785.7999999999998 z M 1009.3000000000001 105.59999999999991 Q 1038.6000000000001 140.7999999999999 1038.6000000000001 170.0999999999999 L 1026.9 205.2999999999999 L 1208.7 205.2999999999999 L 1208.7 199.3999999999999 L 1196.9 164.19999999999987 L 1196.9 158.39999999999986 Q 1196.9 136.39999999999986 1226.3000000000002 105.59999999999987 z M 921.3000000000001 809.3 L 921.3000000000001 838.5999999999999 L 944.8000000000001 861.9999999999999 L 979.9000000000001 861.9999999999999 C 995.6000000000001 856.1999999999999 1003.4000000000001 842.4999999999999 1003.4000000000001 820.9999999999999 Q 991.7 785.7999999999998 956.5000000000001 785.7999999999998 Q 933.0000000000001 785.7999999999998 921.3000000000001 809.2999999999998 z M 921.3000000000001 474.99999999999994 L 921.3000000000001 504.29999999999995 Q 933.0000000000001 526.3 956.5000000000001 533.6999999999999 Q 1009.3000000000001 523.4 1009.3000000000001 486.69999999999993 Q 1001.9000000000001 463.29999999999995 979.9000000000001 451.5999999999999 L 944.8000000000001 451.5999999999999 z M 921.3000000000001 152.39999999999992 L 921.3000000000001 175.89999999999992 Q 933.0000000000001 197.89999999999992 956.4000000000001 205.19999999999993 Q 1003.3000000000001 200.79999999999993 1003.4000000000001 158.29999999999993 L 1003.4000000000001 152.39999999999992 Q 988.7 123.09999999999992 956.4000000000001 123.09999999999992 L 950.6000000000001 123.09999999999992 z M 915.4000000000001 533.5999999999999 Q 915.4000000000001 592.1999999999999 839.2 685.9999999999999 Q 897.8000000000001 721.1999999999999 950.6 721.1999999999999 L 974.1 721.1999999999999 Q 1050.3 721.1999999999999 1085.5 680.1999999999999 Q 1032.7 649.4 1003.4 539.3999999999999 L 968.1999999999999 551.1999999999998 L 956.4999999999999 551.1999999999998 Q 937.3999999999999 551.1999999999998 915.3999999999999 533.5999999999998 z M 839.2 310.7999999999999 Q 909.6 379.69999999999993 909.5 445.5999999999999 L 956.5 427.9999999999999 L 962.3 427.9999999999999 L 1009.1999999999999 439.7999999999999 Q 1015.0999999999999 381.0999999999999 1085.5 298.9999999999999 Q 1020.9 269.6999999999999 962.3 263.7999999999999 Q 884.5999999999999 263.7999999999999 839.1999999999999 310.7999999999999 z M 745.4000000000001 738.8 L 745.4000000000001 744.6999999999999 L 874.4000000000001 744.6999999999999 L 874.4000000000001 738.8 Q 852.4000000000001 738.8 809.9000000000001 709.5 C 781.5000000000001 729.1 760.0000000000001 738.8 745.4000000000001 738.8 z M 809.9000000000001 328.29999999999995 Q 739.5000000000001 414.9 739.5000000000001 492.49999999999994 Q 739.5000000000001 584.9 815.7000000000002 662.5999999999999 Q 880.2000000000002 589.3 880.2000000000002 498.3999999999999 L 880.2000000000002 492.49999999999994 Q 880.2000000000002 388.49999999999994 809.9000000000002 328.29999999999995 z M 727.8000000000001 234.49999999999994 L 727.8000000000001 240.39999999999995 C 754.2 246.29999999999995 781.5000000000001 259.9 809.9000000000001 281.4 Q 855.3000000000001 252.09999999999997 897.8000000000001 240.39999999999998 L 897.8000000000001 234.49999999999997 z M 722.0000000000001 785.7 L 733.7000000000002 803.3000000000001 L 733.7000000000002 850.2 L 710.2000000000002 879.6 L 903.7000000000002 879.6 Q 880.3000000000002 848.8000000000001 880.3000000000002 820.9 L 892.0000000000002 785.6999999999999 z M 710.3000000000001 105.5 L 733.7 140.7 L 733.7 187.6 L 722 205.2 L 892.1 205.2 L 880.3000000000001 158.29999999999998 L 909.7 105.49999999999999 z M 622.3000000000001 486.7 Q 622.3000000000001 523.3 675.1 533.6 Q 694.1 533.6 716.1 492.5 Q 704.4 455.9 686.8000000000001 451.5 L 669.2 451.5 Q 636.9000000000001 451.5 622.3000000000001 486.7 z M 616.4000000000001 826.8 L 616.4000000000001 838.5 L 639.9000000000001 862 L 675.1000000000001 862 L 698.5000000000001 838.5 L 698.5000000000001 815.1 Q 680.9000000000001 785.7 657.5000000000001 785.7 Q 616.4000000000001 785.7 616.4000000000001 826.8000000000001 z M 616.4000000000001 152.39999999999998 L 616.4000000000001 175.89999999999998 Q 628.1000000000001 197.89999999999998 651.6000000000001 205.2 C 672.1000000000001 205.2 687.8000000000002 195.39999999999998 698.5000000000001 175.89999999999998 L 698.5000000000001 152.39999999999998 Q 683.8000000000001 123.09999999999998 651.6000000000001 123.09999999999998 Q 628.1000000000001 131.89999999999998 616.4000000000001 152.39999999999998 z M 551.9000000000001 299 Q 619.3000000000001 370.9 628.2 439.8 L 675.1 428 L 716.1 433.9 Q 720.5 376.7 786.5 299 Q 708.8 263.8 663.3 263.8 Q 595.9 263.8 551.9 299 z M 628.2 539.4 Q 628.1 601 546.1 691.9 Q 595.9 721.3 663.3000000000001 727.1 Q 717.6 722.7 786.5000000000001 691.9 Q 710.2000000000002 592.1999999999999 710.3000000000001 545.3 L 680.9000000000001 551.1999999999999 L 663.3000000000001 551.1999999999999 z M 458.20000000000005 738.8 L 458.20000000000005 744.5999999999999 L 581.3000000000001 744.5999999999999 L 581.3000000000001 738.8 Q 559.3000000000001 738.8 516.8000000000001 715.3 z M 452.40000000000003 234.49999999999994 L 522.7 275.49999999999994 Q 522.7 263.79999999999995 598.9000000000001 240.29999999999995 L 598.9000000000001 234.49999999999994 z M 440.70000000000005 492.49999999999994 Q 440.70000000000005 602.5 516.9000000000001 662.5 C 567.8000000000001 621.5 593.2 576.6 593.2 527.7 L 593.2 457.30000000000007 Q 593.2 400.20000000000005 522.8000000000001 322.4000000000001 Q 440.70000000000005 385.5000000000001 440.70000000000005 492.5000000000001 z M 440.70000000000005 785.6999999999999 L 452.40000000000003 803.3 L 452.40000000000003 850.1999999999999 L 434.90000000000003 873.6999999999999 L 434.90000000000003 879.4999999999999 L 599 879.4999999999999 L 599 873.6999999999999 Q 581.5 853.1999999999999 581.5 832.5999999999999 L 581.5 820.8999999999999 L 593.2 785.6999999999998 z M 429.00000000000006 105.49999999999989 L 452.40000000000003 140.69999999999987 L 452.40000000000003 187.59999999999988 L 440.70000000000005 205.19999999999987 L 593.2 205.19999999999987 L 581.4000000000001 169.9999999999999 L 581.4000000000001 158.2999999999999 Q 581.4000000000001 137.6999999999999 604.9000000000001 105.4999999999999 z M 335.20000000000005 826.7999999999998 Q 335.20000000000005 861.8999999999999 370.30000000000007 861.8999999999999 L 393.80000000000007 861.8999999999999 L 417.20000000000005 838.4999999999999 L 417.20000000000005 826.7999999999998 Q 417.20000000000005 785.6999999999998 370.30000000000007 785.6999999999998 Q 335.20000000000005 785.6999999999998 335.20000000000005 826.7999999999998 z M 335.20000000000005 152.39999999999986 L 335.20000000000005 175.79999999999987 Q 346.90000000000003 197.79999999999987 370.30000000000007 205.19999999999987 C 390.9000000000001 205.19999999999987 406.50000000000006 195.39999999999986 417.20000000000005 175.79999999999987 L 417.20000000000005 152.39999999999986 Q 402.6 123.09999999999987 370.30000000000007 123.09999999999987 Q 346.9000000000001 131.89999999999986 335.20000000000005 152.39999999999986 z M 329.30000000000007 498.39999999999986 Q 341.00000000000006 533.4999999999999 376.20000000000005 533.4999999999999 Q 417.20000000000005 521.7999999999998 417.20000000000005 486.5999999999999 Q 417.20000000000005 451.4999999999999 376.20000000000005 451.4999999999999 L 370.30000000000007 451.4999999999999 Q 329.30000000000007 451.4999999999999 329.30000000000007 498.39999999999986 z M 341.00000000000006 545.2999999999998 C 321.50000000000006 609.7999999999998 294.1000000000001 658.6999999999998 258.9000000000001 691.8999999999999 Q 317.5000000000001 721.1999999999998 346.9000000000001 721.1999999999998 L 405.5000000000001 721.1999999999998 Q 451.0000000000001 721.1999999999998 487.60000000000014 685.9999999999998 Q 411.40000000000015 612.6999999999998 411.40000000000015 545.2999999999997 L 382.10000000000014 551.0999999999997 L 352.70000000000016 551.0999999999997 L 346.90000000000015 545.2999999999997 z M 258.9000000000001 293.09999999999985 Q 319.0000000000001 356.1999999999999 341.0000000000001 433.89999999999986 L 370.3000000000001 427.9999999999999 L 411.40000000000015 433.89999999999986 Q 423.10000000000014 369.39999999999986 487.60000000000014 298.9999999999999 Q 445.10000000000014 263.7999999999999 376.20000000000016 263.7999999999999 Q 332.20000000000016 263.7999999999999 258.90000000000015 293.0999999999999 z M 165.10000000000008 738.7999999999998 L 165.10000000000008 744.5999999999998 L 288.20000000000005 744.5999999999998 L 288.20000000000005 738.7999999999998 Q 266.20000000000005 738.7999999999998 235.40000000000003 715.2999999999998 z M 165.10000000000008 234.49999999999983 L 223.80000000000007 269.6999999999998 L 235.50000000000006 269.6999999999998 L 300.00000000000006 240.3999999999998 L 300.00000000000006 234.4999999999998 z M 153.4000000000001 492.49999999999983 L 153.4000000000001 510.09999999999985 Q 153.4000000000001 596.5999999999999 229.60000000000008 662.5999999999999 Q 311.70000000000005 590.8 311.70000000000005 486.69999999999993 C 311.70000000000005 439.79999999999995 286.30000000000007 383.0999999999999 235.50000000000006 316.5999999999999 Q 153.40000000000006 382.5999999999999 153.40000000000006 492.4999999999999 z M 129.9000000000001 785.6999999999998 L 129.9000000000001 879.5999999999998 L 317.6000000000001 879.5999999999998 L 317.6000000000001 873.6999999999998 Q 300.00000000000006 853.1999999999998 300.00000000000006 832.5999999999998 L 300.00000000000006 820.8999999999997 L 311.70000000000005 785.6999999999997 z M 129.9000000000001 592.1999999999998 L 129.9000000000001 721.1999999999998 Q 194.4000000000001 700.6999999999998 200.3000000000001 685.9999999999998 Q 141.60000000000008 633.2999999999997 135.8000000000001 592.1999999999998 z M 129.9000000000001 269.6999999999998 L 129.9000000000001 392.79999999999984 L 135.7000000000001 392.79999999999984 Q 135.7000000000001 367.89999999999986 200.2000000000001 293.1999999999998 z M 129.9000000000001 117.19999999999982 L 129.9000000000001 205.19999999999982 L 311.7000000000001 205.19999999999982 L 300.0000000000001 158.2999999999998 Q 300.0000000000001 140.69999999999982 323.5000000000001 105.49999999999982 L 141.7000000000001 105.49999999999982 z M 47.8000000000001 76.09999999999982 L 47.8000000000001 926.3999999999997 L 100.6000000000001 926.3999999999997 L 100.6000000000001 76.0999999999998 z M 30.200000000000095 949.8999999999997 L 30.200000000000095 973.2999999999997 L 124.00000000000009 973.2999999999997 L 124.00000000000009 949.8999999999997 z M 24.300000000000097 11.599999999999795 L 24.300000000000097 29.199999999999797 L 124.0000000000001 29.199999999999797 L 124.0000000000001 11.599999999999795 z M 2123.6000000000004 76.0999999999998 L 2123.6000000000004 914.6999999999998 L 2135.3 926.3999999999999 L 2176.4 926.3999999999999 L 2176.4 76.09999999999991 z" stroke-linecap="round" />
</g>
</svg>