<?xml version="1.0" encoding="UTF-8" standalone="no" ?>
<!DOCTYPE svg PUBLIC "-//W3C//DTD SVG 1.1//EN" "http://www.w3.org/Graphics/SVG/1.1/DTD/svg11.dtd">
<svg xmlns="http://www.w3.org/2000/svg" xmlns:xlink="http://www.w3.org/1999/xlink" version="1.1" width="2186" height="2592" viewBox="0 0 2186 2592" xml:space="preserve">
<desc>Created with Fabric.js 5.3.0</desc>
<defs>
</defs>
<g transform="matrix(1 0 0 1 1093 1296)" id="ycPd2GeOkhcHv8PM-JuJ5"  >
<path style="stroke: none; stroke-width: 1; stroke-dasharray: none; stroke-linecap: butt; stroke-dashoffset: 0; stroke-linejoin: miter; stroke-miterlimit: 4; fill: rgb(0,0,0); fill-rule: evenodd; opacity: 1;"  transform=" translate(-1093, -1296)" d="M 2185.2 1093 L 2185.2 2591.4 L 0.7999999999997272 2591.4 L 0.7999999999997272 1093 C 0.7999999999997272 490.6 490.7999999999997 0.599999999999909 1093.1999999999998 0.599999999999909 C 1695.1999999999998 0.599999999999909 2185.2 490.5999999999999 2185.2 1093 z M 1143.7999999999997 160.89999999999998 L 1143.7999999999997 726.6 C 1386.0999999999997 751.7 1576.0999999999997 957.7 1576.0999999999997 1206.8 L 1576.0999999999997 1233.8 L 2026.2999999999997 1233.8 L 2026.2999999999997 1093 C 2026.2999999999997 595.1 1634.8999999999996 187.5 1143.7999999999997 160.89999999999998 z M 684.4999999999998 1807.6999999999998 L 1042.6 1807.6999999999998 L 1042.6 1363.7999999999997 L 684.4999999999999 1363.7999999999997 z M 610.2999999999997 1807.6999999999998 L 610.2999999999997 1363.7999999999997 L 159.99999999999972 1363.7999999999997 L 159.99999999999972 1807.6999999999998 z M 1501.8999999999996 1206.7999999999997 C 1501.8999999999996 998.5999999999997 1345.2999999999997 826.1999999999997 1143.7999999999997 801.0999999999997 L 1143.7999999999997 1233.7999999999997 L 1501.8999999999996 1233.7999999999997 z M 1042.5999999999997 801.0999999999997 C 841.0999999999997 826.1999999999997 684.4999999999997 998.4999999999997 684.4999999999997 1206.7999999999997 L 684.4999999999997 1233.7999999999997 L 1042.5999999999997 1233.7999999999997 z M 684.4999999999997 1901.6999999999996 L 684.4999999999997 2432.0999999999995 L 1042.5999999999997 2432.0999999999995 L 1042.5999999999997 1901.6999999999994 z M 1501.8999999999996 2432.0999999999995 L 1501.8999999999996 1901.6999999999994 L 1143.7999999999997 1901.6999999999994 L 1143.7999999999997 2432.0999999999995 z M 1501.8999999999996 1807.5999999999995 L 1501.8999999999996 1363.6999999999994 L 1143.7999999999997 1363.6999999999994 L 1143.7999999999997 1807.5999999999995 z M 1576.0999999999997 1807.5999999999995 L 2026.2999999999997 1807.5999999999995 L 2026.2999999999997 1363.6999999999994 L 1576.0999999999997 1363.6999999999994 z M 159.99999999999977 1092.4999999999995 L 159.99999999999977 1233.3999999999996 L 610.2999999999997 1233.3999999999996 L 610.2999999999997 1206.3999999999996 C 610.2999999999997 957.2999999999996 799.8999999999997 751.5999999999997 1042.5999999999997 726.0999999999997 L 1042.5999999999997 160.89999999999964 C 551.4999999999997 187.49999999999963 159.99999999999966 594.9999999999997 159.99999999999966 1092.4999999999995 z M 159.99999999999977 2432.0999999999995 L 610.2999999999997 2432.0999999999995 L 610.2999999999997 1901.6999999999994 L 159.99999999999972 1901.6999999999994 z M 2026.2999999999997 2432.0999999999995 L 2026.2999999999997 1901.5999999999995 L 1576.0999999999997 1901.5999999999995 L 1576.0999999999997 2432.0999999999995 z" stroke-linecap="round" />
</g>
<g transform="matrix(1.0751168498 0 0 1 1094.2461008219 1306.4830946512)" id="HhecgQSaBT1PB98-E2B1v"  >
<path style="stroke: rgb(0,0,0); stroke-width: 0; stroke-dasharray: none; stroke-linecap: butt; stroke-dashoffset: 0; stroke-linejoin: miter; stroke-miterlimit: 4; fill: rgb(249,27,21); fill-rule: nonzero; opacity: 1;"  transform=" translate(0, 0.000005)" d="M -47.47546 -1149.89792 L -47.47546 1149.89791 L 47.47546 1149.89791 L 47.47546 -1149.89792 z" stroke-linecap="round" />
</g>
<g transform="matrix(0.9806670059 0 0 1.1123089328 1093 1299.335756382)" id="u1U4h1ciMBiGDN-Wx80YK"  >
<path style="stroke: rgb(0,0,0); stroke-width: 0; stroke-dasharray: none; stroke-linecap: butt; stroke-dashoffset: 0; stroke-linejoin: miter; stroke-miterlimit: 4; fill: rgb(249,27,21); fill-rule: nonzero; opacity: 1;"  transform=" translate(-0.000005, 0)" d="M -953.13012 -58.48208 L -953.13012 58.48208 L 953.13013 58.48208 L 953.13013 -58.48208 z" stroke-linecap="round" />
</g>
<g transform="matrix(0.9806670059 0 0 0.815859844 1103.0238419888 1854.6658530203)" id="wlquh27e9gT-fqm-e6QlQ"  >
<path style="stroke: rgb(0,0,0); stroke-width: 0; stroke-dasharray: none; stroke-linecap: butt; stroke-dashoffset: 0; stroke-linejoin: miter; stroke-miterlimit: 4; fill: rgb(249,27,21); fill-rule: nonzero; opacity: 1;"  transform=" translate(-0.000005, 0)" d="M -953.13012 -58.48208 L -953.13012 58.48208 L 953.13013 58.48208 L 953.13013 -58.48208 z" stroke-linecap="round" />
</g>
</svg>