<?xml version="1.0" encoding="UTF-8" standalone="no" ?>
<!DOCTYPE svg PUBLIC "-//W3C//DTD SVG 1.1//EN" "http://www.w3.org/Graphics/SVG/1.1/DTD/svg11.dtd">
<svg xmlns="http://www.w3.org/2000/svg" xmlns:xlink="http://www.w3.org/1999/xlink" version="1.1" width="24" height="24" viewBox="0 0 24 24" xml:space="preserve">
<desc>Created with Fabric.js 5.3.0</desc>
<defs>
</defs>
<g transform="matrix(1 0 0 1 12 12)" id="avivIIWBWfItZBZUDXDLG"  >
<path style="stroke: none; stroke-width: 1; stroke-dasharray: none; stroke-linecap: butt; stroke-dashoffset: 0; stroke-linejoin: miter; stroke-miterlimit: 4; fill: rgb(0,0,0); fill-rule: nonzero; opacity: 1;"  transform=" translate(0, 0)" d="M -4.001 0 C -0.6920000000000002 0 1.9989999999999997 -2.691 1.9989999999999997 -6 C 1.9989999999999997 -9.309000000000001 -0.6920000000000002 -12 -4.001 -12 C -7.3100000000000005 -12 -10.001000000000001 -9.309000000000001 -10.001000000000001 -6 C -10.001000000000001 -2.691 -7.310000000000001 0 -4.001000000000001 0 z M -4.001 -10 C -1.7950000000000004 -10 -0.001000000000000334 -8.206 -0.001000000000000334 -6 C -0.001000000000000334 -3.794 -1.7950000000000004 -2 -4.001 -2 C -6.207000000000001 -2 -8.001000000000001 -3.794 -8.001000000000001 -6 C -8.001000000000001 -8.206 -6.207000000000001 -10 -4.001000000000001 -10 z M -7.001 2 L -2.0010000000000003 2 L -2.0010000000000003 4 L -7.001 4 C -8.655000000000001 4 -10.001000000000001 5.346 -10.001000000000001 7 L -10.001000000000001 12 L -12.001000000000001 12 L -12.001000000000001 7 C -12.001000000000001 4.243 -9.758000000000001 2 -7.001000000000001 2 z M 11.999 5 L 8.945 7.083 L 10.216000000000001 11.065000000000001 L 9.398000000000001 11.636000000000001 L 6.016000000000002 9.298000000000002 L 2.685000000000002 11.636000000000003 L 1.898000000000002 11.043000000000003 L 3.079000000000002 7.021000000000003 L 1.7763568394002505e-15 5.005000000000003 L 1.7763568394002505e-15 3.9990000000000023 L 4.200000000000002 3.9990000000000023 L 5.485000000000002 -0.3639999999999981 L 6.544000000000002 -0.3639999999999981 L 7.827000000000002 3.9990000000000023 L 12.001000000000001 3.9990000000000023 L 12.001000000000001 4.999000000000002 z" stroke-linecap="round" />
</g>
<g transform="matrix(1 0 0 1 13 17.818)" id="ofTZbjZ6g2ewIOwNwi1Dw"  >
<path style="stroke: none; stroke-width: 1; stroke-dasharray: none; stroke-linecap: butt; stroke-dashoffset: 0; stroke-linejoin: miter; stroke-miterlimit: 4; fill: rgb(249,27,21); fill-rule: nonzero; opacity: 1;"  transform=" translate(0, 0)" d="M -11.001 6.182 z M 10.999 -0.818 L 7.945 1.2650000000000001 L 9.216000000000001 5.247 L 8.398000000000001 5.818 L 5.016000000000002 3.4799999999999995 L 1.6850000000000018 5.818 L 0.8980000000000018 5.225 L 2.079000000000002 1.2029999999999994 L -0.9999999999999982 -0.8130000000000006 L -0.9999999999999982 -1.8190000000000006 L 3.200000000000002 -1.8190000000000006 L 4.485000000000002 -6.182000000000001 L 5.544000000000002 -6.182000000000001 L 6.827000000000002 -1.8190000000000008 L 11.001000000000001 -1.8190000000000008 L 11.001000000000001 -0.8190000000000008 z" stroke-linecap="round" />
</g>
</svg>