<?xml version="1.0" encoding="UTF-8" standalone="no" ?>
<!DOCTYPE svg PUBLIC "-//W3C//DTD SVG 1.1//EN" "http://www.w3.org/Graphics/SVG/1.1/DTD/svg11.dtd">
<svg xmlns="http://www.w3.org/2000/svg" xmlns:xlink="http://www.w3.org/1999/xlink" version="1.1" width="512" height="512" viewBox="0 0 512 512" xml:space="preserve">
<desc>Created with Fabric.js 5.3.0</desc>
<defs>
</defs>
<g transform="matrix(1 0 0 1 265.9571854063 235.8885153412)" id="mJFMLWi-jg-Zx9pshK0fA"  >
<path style="stroke: rgb(0,0,0); stroke-width: 200; stroke-dasharray: none; stroke-linecap: round; stroke-dashoffset: 0; stroke-linejoin: round; stroke-miterlimit: 10; fill: none; fill-rule: nonzero; opacity: 1;"  transform=" translate(-312.4918388717, -231.3683681702)" d="M 292.41297704000067 238.23818005143087 Q 292.41397704000065 238.23718005143087 297.8595215944561 234.7718335167774 Q 303.3050661489116 231.30648698212394 311.72090773306996 224.37579391281702 Q 320.13674931722835 217.4451008435101 324.59219486178284 213.48470480390614 Q 329.04764040633734 209.5243087643022 330.0377394162383 208.0391602494507 Q 331.0278384261393 206.55401173459921 330.5327889211888 207.0490612395497 Q 330.0377394162383 207.5441107445002 327.06744238653533 213.4847048039061 Q 324.09714535683236 219.42529886331204 322.11694733703035 222.89064539796553 Q 320.13674931722835 226.35599193261902 314.1961552578224 240.71242757618336 Q 308.25556119841644 255.0688632197477 308.25556119841644 257.5441107445002 Q 308.25556119841644 260.0193582692527 308.25556119841644 260.51440777420316 Q 308.25556119841644 261.00945727915365 309.2456602083175 261.50450678410414 Q 310.2357592182185 261.9995562890546 312.21595723802045 261.9995562890546 Q 314.1961552578224 261.9995562890546 318.6516008023769 259.5243087643022 Q 323.1070463469314 257.0490612395497 328.5525909013868 251.10846718014375 Q 333.9981354558422 245.1678731207378 339.93872951524816 237.24708104152987 Q 345.8793235746541 229.32628896232194 347.3644720895056 223.8807444078665 Q 348.84962060435714 218.43519985341106 348.84962060435714 215.9599523286586 Q 348.84962060435714 213.48470480390614 344.39417505980265 210.51440777420316 Q 339.93872951524816 207.5441107445002 336.4733829805947 208.03916024945067 Q 333.00803644594123 208.53420975440116 300.33476911920854 231.30648698212394 Q 267.66150179247586 254.07876420984672 265.1862542677234 258.5342097544012 Q 262.711006742971 262.98965529895565 264.69120476277294 266.9500513385596 Q 266.6714027825749 270.91044737816355 271.1268483271294 270.91044737816355 Q 275.5822938716839 270.91044737816355 284.98823446574323 267.9401503484606 Q 294.3941750598026 264.9698533187576 305.2852641687135 258.0391602494507 Q 316.17635327762446 251.10846718014375 325.5822938716838 242.69262559598533 Q 334.9882344657432 234.27678401182692 340.43377902019864 224.8708434177675 Q 345.8793235746541 215.4649028237081 346.3743730796046 209.52430876430216 Q 346.8694225845551 203.58371470489624 344.88922456475314 201.10846718014375 Q 342.9090265449512 198.63321965539126 339.4436800102977 197.64312064549028 Q 335.97833347564426 196.6530216355893 330.0377394162383 197.64312064549028 Q 324.09714535683236 198.63321965539126 313.70110575287197 205.0688632197477 Q 303.3050661489116 211.50450678410414 291.91892753505016 221.40549688311404 Q 280.53278892118874 231.30648698212394 274.0971453568323 240.21737807123284 Q 267.66150179247586 249.12826916034174 267.1664522875254 254.5738137147972 Q 266.6714027825749 260.0193582692527 270.13674931722835 262.4946057940051 Q 273.6020958518818 264.9698533187576 278.0575413964363 265.4649028237081 Q 282.5129869409908 265.9599523286586 292.4139770400007 263.4847048039061 Q 302.3149671390106 261.00945727915365 316.67140278257494 253.08866519994572 Q 331.0278384261393 245.1678731207378 341.91892753505016 236.2569820316289 Q 352.81001664396103 227.34609094252 357.2654621885155 219.42529886331207 Q 361.72090773307 211.50450678410414 361.72090773307 204.5738137147972 Q 361.72090773307 197.64312064549028 358.2555611984165 195.1678731207378 Q 354.790214663763 192.6926255959853 350.82981862415903 192.19757609103482 Q 346.8694225845551 191.70252658608433 339.93872951524816 192.19757609103482 Q 333.00803644594123 192.6926255959853 325.08724436673333 196.1579721306388 Q 317.16645228752543 199.6233186652923 310.2357592182185 204.07876420984672 Q 303.3050661489116 208.53420975440116 299.8397196142581 212.49460579400514 Q 296.37437307960465 216.45500183360912 295.87932357465417 218.93024935836158 Q 295.3842740697037 221.40549688311404 292.9090265449512 222.39559589301504 L 290.4327790201987 223.38669490291605" stroke-linecap="round" />
</g>
<g transform="matrix(21.3333333333 0 0 21.3333333333 256 256)" id="oUryusFUz1oxiKEAiHzgy"  >
<path style="stroke: none; stroke-width: 1; stroke-dasharray: none; stroke-linecap: butt; stroke-dashoffset: 0; stroke-linejoin: miter; stroke-miterlimit: 4; fill: rgb(249,27,21); fill-rule: nonzero; opacity: 1;"  transform=" translate(0, 0)" d="M 6.581 -9.85994 L 0.3160000000000007 -11.94894 C 0.11087000000000072 -12.01726 -0.1108699999999993 -12.01726 -0.3159999999999993 -11.94894 L -6.580999999999999 -9.85994 C -8.623969999999998 -9.18131 -10.00198 -7.26968 -9.999999999999998 -5.11694 L -9.999999999999998 0.00006000000000039307 C -9.999999999999998 7.56306 -0.7999999999999989 11.74006 -0.4059999999999988 11.91406 C -0.1475099999999988 12.028899999999998 0.14751000000000114 12.028899999999998 0.40600000000000125 11.91406 C 0.8000000000000013 11.74006 10 7.563059999999999 10 0.000059999999999504894 L 10 -5.1169400000000005 C 10.00198 -7.269680000000001 8.62397 -9.18131 6.5809999999999995 -9.859940000000002 z M 4.718 -2.28294 L 0.44599999999999973 1.9890600000000003 C 0.09287999999999974 2.3445400000000003 -0.38795000000000024 2.5437100000000004 -0.8890000000000002 2.54206 L -0.9220000000000003 2.54206 C -1.4334800000000003 2.5342300000000004 -1.9194800000000003 2.3174300000000003 -2.2670000000000003 1.9420600000000001 L -4.573 -0.4579399999999998 C -4.84511 -0.7104099999999998 -4.955 -1.0928299999999997 -4.8584000000000005 -1.4512399999999999 C -4.7618100000000005 -1.80965 -4.47463 -2.08506 -4.112500000000001 -2.1666 C -3.7503700000000006 -2.2481299999999997 -3.3728700000000007 -2.1223699999999996 -3.131990000000001 -1.83995 L -0.8879900000000007 0.5000499999999999 L 3.300009999999999 -3.6999500000000003 C 3.692389999999999 -4.07892 4.316089999999999 -4.0735 4.701829999999999 -3.6877700000000004 C 5.087559999999999 -3.3020400000000003 5.092979999999999 -2.6783300000000008 4.714009999999999 -2.2859500000000006 z" stroke-linecap="round" />
</g>
</svg>