<?xml version="1.0" encoding="UTF-8" standalone="no" ?>
<!DOCTYPE svg PUBLIC "-//W3C//DTD SVG 1.1//EN" "http://www.w3.org/Graphics/SVG/1.1/DTD/svg11.dtd">
<svg xmlns="http://www.w3.org/2000/svg" xmlns:xlink="http://www.w3.org/1999/xlink" version="1.1" width="24" height="24" viewBox="0 0 24 24" xml:space="preserve">
<desc>Created with Fabric.js 5.3.0</desc>
<defs>
</defs>
<g transform="matrix(1 0 0 1 12 12)" id="pvtzpezA0f7euY4IVZegf"  >
<path style="stroke: none; stroke-width: 1; stroke-dasharray: none; stroke-linecap: butt; stroke-dashoffset: 0; stroke-linejoin: miter; stroke-miterlimit: 4; fill: rgb(249,27,21); fill-rule: nonzero; opacity: 1;"  transform=" translate(0, 0)" d="M -1.46887 3.48137 C -0.8728699999999999 4.07637 -0.8728699999999999 5.04237 -1.46887 5.63837 L -6.97687 11.146370000000001 C -8.16487 12.334370000000002 -10.11487 12.296370000000001 -11.25487 11.03137 C -12.32287 9.84537 -12.15587 7.988370000000001 -11.02787 6.8603700000000005 L -5.63787 1.4703700000000008 C -5.042870000000001 0.8753700000000009 -4.07687 0.8743700000000009 -3.4818700000000002 1.4703700000000008 L -1.4698700000000002 3.482370000000001 z M 3.94313 -1.00563 C 5.20613 -1.00363 6.4871300000000005 -0.50463 7.43013 0.43937000000000004 C 7.99113 0.9913700000000001 8.74313 0.88537 8.99113 0.7143700000000001 C 10.810130000000001 -0.5446299999999998 12.009129999999999 -2.62863 12.009129999999999 -5.00863 C 12.009129999999999 -5.42163 11.972129999999998 -5.82563 11.903129999999999 -6.21863 C 11.76713 -6.98663 10.79613 -7.25963 10.244129999999998 -6.70863 L 8.597129999999998 -5.06163 C 7.451129999999998 -3.91563 5.944129999999998 -3.73963 4.932129999999998 -4.56763 C 3.7681299999999984 -5.51963 3.7041299999999984 -7.23963 4.741129999999998 -8.27663 L 6.706129999999998 -10.24163 C 7.257129999999998 -10.79363 6.987129999999998 -11.76763 6.219129999999998 -11.90363 C 5.826129999999998 -11.97363 5.422129999999998 -12.00963 5.009129999999998 -12.00963 C 2.066129999999998 -12.00963 -0.445870000000002 -10.19163 -1.4798700000000018 -7.61863 C -1.6868700000000019 -7.104629999999999 -1.5658700000000019 -6.513629999999999 -1.1738700000000017 -6.122629999999999 L 3.9431299999999982 -1.0066299999999995 z M 6.01613 1.85337 C 5.25513 1.0923699999999998 4.185130000000001 0.8463700000000001 3.2121300000000006 1.0923699999999998 L -4.009869999999999 -6.12863 L -4.009869999999999 -8.00963 C -4.009869999999999 -8.76163 -4.4118699999999995 -9.45763 -5.06387 -9.83363 L -8.46987 -11.79763 C -9.08787 -12.15463 -9.868870000000001 -12.05163 -10.37387 -11.54663 L -11.54587 -10.37463 C -12.051870000000001 -9.869629999999999 -12.15487 -9.08763 -11.797870000000001 -8.46963 L -9.832870000000002 -5.06263 C -9.456870000000002 -4.41063 -8.761870000000002 -4.0096300000000005 -8.009870000000001 -4.0096300000000005 L -6.131870000000001 -4.0096300000000005 L 1.0921299999999992 3.2133699999999994 C 0.8471299999999992 4.185369999999999 1.0921299999999992 5.255369999999999 1.8531299999999993 6.016369999999999 L 6.91013 11.019369999999999 C 8.057129999999999 12.166369999999999 10.038129999999999 12.275369999999999 11.18413 11.127369999999999 C 12.33213 9.977369999999999 12.18713 8.260369999999998 11.18313 6.965369999999999 L 6.01713 1.853369999999999 z" stroke-linecap="round" />
</g>
<g transform="matrix(1 0 0 1 12.0188256819 12)" id="nK0-iyvK8SveQQ0X3-Q_J"  >
<path style="stroke: none; stroke-width: 1; stroke-dasharray: none; stroke-linecap: butt; stroke-dashoffset: 0; stroke-linejoin: miter; stroke-miterlimit: 4; fill: rgb(0,0,0); fill-rule: nonzero; opacity: 1;"  transform=" translate(0, 0)" d="M -1.4877 3.48137 C -0.8917 4.07637 -0.8917 5.04237 -1.4877 5.63837 L -6.9957 11.146370000000001 C -8.1837 12.334370000000002 -10.133700000000001 12.296370000000001 -11.2737 11.03137 C -12.3417 9.84537 -12.1747 7.988370000000001 -11.0467 6.8603700000000005 L -5.6567 1.4703700000000008 C -5.0617 0.8753700000000009 -4.0957 0.8743700000000009 -3.5006999999999997 1.4703700000000008 L -1.4886999999999997 3.482370000000001 z M 3.9243 -1.00563 C 5.1873000000000005 -1.00363 6.4683 -0.50463 7.411300000000001 0.43937000000000004 C 7.972300000000001 0.9913700000000001 8.724300000000001 0.88537 8.9723 0.7143700000000001 C 10.7913 -0.5446299999999998 11.990300000000001 -2.62863 11.990300000000001 -5.00863 C 11.990300000000001 -5.42163 11.9533 -5.82563 11.884300000000001 -6.21863 C 11.748300000000002 -6.98663 10.777300000000002 -7.25963 10.2253 -6.70863 L 8.5783 -5.06163 C 7.432300000000001 -3.91563 5.9253 -3.73963 4.9133000000000004 -4.56763 C 3.7493000000000007 -5.51963 3.6853000000000007 -7.23963 4.722300000000001 -8.27663 L 6.6873000000000005 -10.24163 C 7.238300000000001 -10.79363 6.9683 -11.76763 6.2003 -11.90363 C 5.807300000000001 -11.97363 5.403300000000001 -12.00963 4.9903 -12.00963 C 2.0473000000000003 -12.00963 -0.46469999999999967 -10.19163 -1.4986999999999995 -7.61863 C -1.7056999999999995 -7.104629999999999 -1.5846999999999996 -6.513629999999999 -1.1926999999999994 -6.122629999999999 L 3.9243000000000006 -1.0066299999999995 z" stroke-linecap="round" />
</g>
</svg>